<svg width="16" height="16" viewBox="0 0 16 16" fill="none" xmlns="http://www.w3.org/2000/svg"><path d="M11.2551 5.70372L12.1694 6.77793C12.274 6.89858 12.3668 6.99783 12.4044 7.05427C12.6778 7.326 12.8311 7.69325 12.8309 8.07593C12.8052 8.52742 12.511 8.83489 12.2385 9.16377L11.5987 9.91494L11.265 10.3041C11.253 10.3176 11.2453 10.3342 11.2428 10.3519C11.2403 10.3696 11.2431 10.3876 11.2508 10.4037C11.2586 10.4199 11.271 10.4334 11.2865 10.4427C11.302 10.452 11.3199 10.4566 11.338 10.4559H14.6732C15.1827 10.4559 15.8245 10.8841 15.7869 11.534C15.7859 11.8295 15.6664 12.1125 15.4544 12.3214C15.2424 12.5303 14.9552 12.6481 14.6555 12.6491H9.43251C9.08892 12.6491 8.16478 12.6861 7.9061 11.898C7.85108 11.7333 7.84356 11.5567 7.88438 11.3881C7.95956 11.1387 8.07853 10.9042 8.23587 10.6953C8.49849 10.3061 8.78284 9.91689 9.06325 9.53936C9.42461 9.04506 9.79584 8.56634 10.1612 8.06231C10.1741 8.04591 10.1812 8.0257 10.1812 8.00491C10.1812 7.98411 10.1741 7.9639 10.1612 7.9475L8.83419 6.39067C8.82553 6.37938 8.81434 6.37023 8.80149 6.36392C8.78865 6.35762 8.77449 6.35434 8.76014 6.35434C8.74578 6.35434 8.73163 6.35762 8.71878 6.36392C8.70593 6.37023 8.69474 6.37938 8.68609 6.39067C8.33065 6.86355 6.77462 8.95749 6.44288 9.38173C6.11114 9.80596 5.29363 9.82932 4.84143 9.38173L2.76607 7.32866C2.75281 7.31555 2.7359 7.30661 2.71749 7.30299C2.69907 7.29937 2.67998 7.30122 2.66263 7.30831C2.64528 7.31539 2.63046 7.3274 2.62005 7.34281C2.60964 7.35821 2.6041 7.37631 2.60415 7.39482V11.3433C2.60903 11.6235 2.52484 11.8982 2.36336 12.1289C2.20189 12.3596 1.97123 12.5347 1.70371 12.6297C1.53276 12.6883 1.35007 12.7058 1.17087 12.6807C0.991671 12.6556 0.821149 12.5887 0.673525 12.4855C0.525901 12.3823 0.405453 12.2458 0.322225 12.0874C0.238996 11.929 0.195399 11.7533 0.195068 11.5749V4.47577C0.206966 4.21993 0.300374 3.9743 0.462021 3.77377C0.623668 3.57324 0.845331 3.42802 1.09551 3.35874C1.31011 3.3024 1.53601 3.30296 1.75032 3.36037C1.96463 3.41779 2.15973 3.53001 2.31585 3.68568L5.50689 6.83436C5.51644 6.84393 5.52801 6.85131 5.54077 6.85597C5.55354 6.86064 5.56719 6.86248 5.58076 6.86136C5.59432 6.86025 5.60748 6.85621 5.61928 6.84952C5.63109 6.84284 5.64126 6.83368 5.64907 6.82269L7.91597 3.73043C8.02073 3.6049 8.15206 3.50345 8.30078 3.4332C8.4495 3.36294 8.61201 3.32557 8.77692 3.32371H14.6732C14.8346 3.32397 14.9941 3.35819 15.1409 3.42407C15.2878 3.48995 15.4187 3.58597 15.5249 3.70572C15.6311 3.82547 15.7101 3.96618 15.7566 4.11844C15.8032 4.2707 15.8162 4.43101 15.7948 4.58864C15.7533 4.86207 15.6125 5.11138 15.3986 5.29031C15.1848 5.46924 14.9123 5.56565 14.6318 5.56166H11.3301C11.3136 5.56205 11.2974 5.56683 11.2833 5.57548C11.2692 5.58414 11.2577 5.59635 11.2501 5.61086C11.2424 5.62537 11.2388 5.64163 11.2397 5.65796C11.2406 5.6743 11.2459 5.69009 11.2551 5.70372Z" fill="#E42575"></path></svg>