<?xml version="1.0" encoding="UTF-8"?><svg id="a" xmlns="http://www.w3.org/2000/svg" xmlns:xlink="http://www.w3.org/1999/xlink" viewBox="0 0 600 150"><defs><style>.c{fill:url(#b);}.d{fill:#fff;}</style><linearGradient id="b" x1="112.23" y1="7.59" x2="120.65" y2="193.68" gradientTransform="translate(3.72 .54) rotate(5.04)" gradientUnits="userSpaceOnUse"><stop offset=".1" stop-color="#5cd2fc"/><stop offset=".63" stop-color="#1473f7"/></linearGradient></defs><path class="c" d="M193.96,63.35c-27.05-15.57-58.74-4.2-81.89,4.1-8.5,3.05-15.83,5.68-21.2,6.4-11.47,1.55-21.45-7.96-23.23-17.47-.69-3.69,.6-23.64,25.74-28.33,1.08-.2,1.47-1.53,.67-2.28-12.96-12.01-35.43-10.95-40.74-10.2-15.24,2.16-29.75,10.65-39.83,23.3C2.8,52.31-1.85,68.9,.41,85.58c2.36,17.47,11.25,32.31,25.02,41.77,9.29,6.39,20.38,10.18,32.71,11.27,6.47,.57,13.29,.4,20.37-.54,13.15-1.74,26.93-8.99,41.52-16.67,31.9-16.78,64.89-34.14,98.25,.25l1.64,1.69c.46,.47,1.2,.23,1.4-.4,10.95-34.9-25.4-58.63-27.37-59.6Zm-116.73,65.03c-35.94,4.76-62.91-12.97-67.12-44.11C5.92,53.35,29.78,28.8,54.69,25.27c7.27-1.03,13.14-1.11,17.8-.69,.31,.03,.61,.06,.91,.09-3.91,1.69-9.05,4.37-14.06,8.32-13.37,10.55-19.29,25-17.13,41.8,2.07,16.07,11.19,29.32,25.68,37.3,7.65,4.21,16.35,6.73,25.61,7.54,2.64,.23,5.32,.33,8.04,.28-8.64,4.19-16.82,7.48-24.3,8.48Zm90.5-35.78c-10.98,1.39-21.54,5.19-31.81,9.88h0c-22.6,10.5-46.38,11.1-63.62,1.6-11.87-6.54-19.34-17.37-21.03-30.47-1.34-10.42,1.05-19.46,7.1-26.96-.99,3.91-1.03,7.85-.34,11.54,1.37,7.31,5.69,14.26,11.84,19.06,6.56,5.12,14.49,7.36,22.31,6.3,6.39-.86,14.18-3.66,23.19-6.89,22.58-8.1,50.69-18.18,73.84-4.75l.17,.1,.2,.09c.14,.06,13.63,6.61,22.08,22.68,2.11,4.02,3.4,8,4.17,11.5-14.6-11.44-30.44-15.91-48.11-13.67Z"/><g><path class="d" d="M321.1,111.39c-6.34,6.25-14.03,9.38-23.08,9.38s-16.72-3.13-23.02-9.38c-6.29-6.25-9.44-13.95-9.44-23.08s3.15-16.83,9.44-23.08c6.29-6.25,13.97-9.38,23.02-9.38s16.74,3.13,23.08,9.38c6.34,6.25,9.5,13.95,9.5,23.08s-3.17,16.83-9.5,23.08Zm-23.08-1.11c6.17,0,11.36-2.1,15.55-6.29,4.2-4.2,6.29-9.42,6.29-15.67s-2.1-11.48-6.29-15.67c-4.2-4.2-9.38-6.29-15.55-6.29s-11.23,2.1-15.43,6.29c-4.2,4.2-6.29,9.42-6.29,15.67s2.1,11.48,6.29,15.67c4.2,4.2,9.34,6.29,15.43,6.29Z"/><path class="d" d="M374.04,55.85c7.24,0,13.04,2.28,17.4,6.85,4.36,4.57,6.54,10.76,6.54,18.58v37.89h-10.74v-37.27c0-5.02-1.36-8.91-4.07-11.66-2.72-2.76-6.46-4.13-11.23-4.13-5.35,0-9.67,1.67-12.96,5-3.29,3.33-4.94,8.45-4.94,15.37v32.71h-10.74V57.45h10.74v8.89c4.36-6.99,11.03-10.49,19.99-10.49Z"/><path class="d" d="M464.02,32.77h10.74V119.16h-10.74v-10.61c-5.35,8.15-13.13,12.22-23.33,12.22-8.64,0-16-3.15-22.09-9.44-6.09-6.29-9.13-13.97-9.13-23.02s3.04-16.72,9.13-23.02c6.09-6.29,13.45-9.44,22.09-9.44,10.2,0,17.98,4.07,23.33,12.22V32.77Zm-21.97,77.63c6.25,0,11.48-2.12,15.67-6.36,4.2-4.24,6.29-9.48,6.29-15.74s-2.1-11.5-6.29-15.74c-4.2-4.24-9.42-6.36-15.67-6.36s-11.36,2.12-15.55,6.36c-4.2,4.24-6.29,9.48-6.29,15.74s2.1,11.5,6.29,15.74c4.2,4.24,9.38,6.36,15.55,6.36Z"/><path class="d" d="M542.14,57.45h10.74v61.71h-10.74v-10.61c-5.35,8.15-13.13,12.22-23.33,12.22-8.64,0-16-3.15-22.09-9.44-6.09-6.29-9.13-13.97-9.13-23.02s3.04-16.72,9.13-23.02c6.09-6.29,13.45-9.44,22.09-9.44,10.2,0,17.98,4.07,23.33,12.22v-10.61Zm-21.97,52.95c6.25,0,11.48-2.12,15.67-6.36,4.2-4.24,6.29-9.48,6.29-15.74s-2.1-11.5-6.29-15.74c-4.2-4.24-9.42-6.36-15.67-6.36s-11.36,2.12-15.55,6.36c-4.2,4.24-6.29,9.48-6.29,15.74s2.1,11.5,6.29,15.74c4.2,4.24,9.38,6.36,15.55,6.36Z"/></g></svg>