<?xml version="1.0" encoding="UTF-8"?><svg id="Layer_1" xmlns="http://www.w3.org/2000/svg" viewBox="0 0 1024 1024"><defs><style>.cls-1{fill:#4eaa91;}.cls-1,.cls-2,.cls-3,.cls-4,.cls-5,.cls-6,.cls-7,.cls-8,.cls-9,.cls-10,.cls-11,.cls-12,.cls-13,.cls-14,.cls-15,.cls-16{stroke-width:0px;}.cls-2{fill:#28856e;}.cls-3{fill:#285a53;}.cls-4{fill:#459e87;}.cls-5{fill:#377167;}.cls-6{fill:#59ba9d;}.cls-7{fill:#cd442e;}.cls-8{fill:#dc583d;}.cls-9{fill:#ac3025;}.cls-10{fill:#cdd9cc;}.cls-11{fill:#8fc6b4;}.cls-12{fill:#fcf8e0;}.cls-13{fill:#fff;}.cls-14{fill:#e6e9d8;}.cls-15{fill:#f5d1b2;}.cls-16{fill:#040405;}</style></defs><path class="cls-13" d="m478.75,155.93c-2.35,15.29-3.98,30.58-4.87,45.89-.09,1.48-1.21,3.61-2.79,2.78-.47-.25-.8-.8-.99-1.63-2.08-9.22-1.57-20.09-1.17-29.99,1.3-12.06,3.94-24.25,7.91-36.58.51-1.6,2.24-7.08,4.68-6,.74.33,1.17,1.12,1.04,1.93l-3.81,23.6Z"/><path class="cls-13" d="m560.17,166.04c-5.59,18.36-12.83,37.59-21.7,57.7-.32.72-.71,1.23-1.16,1.53-.49.33-.66.21-.49-.36l14.82-50.63c2.56-10.65,4.64-22.63,9.21-32.59.16-.34.42-.61.75-.77,1.3-.65,2.2-.36,2.69.86,1.82,4.45-2.75,19.25-4.12,24.26Z"/><path class="cls-13" d="m409.42,185.7c6.71,10.28-4.44,21.78-14.68,14.1-10.68-10.02,4.96-25.18,14.68-14.1Z"/><path class="cls-16" d="m714.32,504.47l.25,10.27c0,.33.18.5.51.51,3.05.11,5.49,1.38,7.32,3.82,5.12,6.86-.1,14.13-7.16,16.08-.32.09-.48.3-.48.64-.01,16.24-.02,32.48-.01,48.71,0,1.19-.16,2.35-.48,3.48-.1.35-.29.63-.58.84-3.05,2.33-6.38,4.13-10,5.39-.14.05-.22.22-.16.36.02.06.06.11.11.14,3.64,2.12,6.85,4.8,9.63,8.03,3.18,3.71,12.03.91,15.92,4.57,6.41,6.04-.61,10.56-4.97,13.97-.52.4-.61,1.15-.2,1.67.13.16.29.29.48.36l7.49,3.15c.32.13.68.07.93-.17,4.3-4.12,13.85-15.56,19.64-6.21.52,3.57-.31,6.96-2.5,10.16-.14.21-.09.49.12.63.01,0,.03.02.04.03.47.26.85.24,1.12-.07,2.18-2.49,5.48-5.42,9.02-4.26,9.99,3.26,4.93,13.8,1.78,20.14-.28.56-.09,1.25.44,1.59,4.05,2.56,8.23,4.81,12.55,6.76,8.82,3.97,2.03,10.83-3.33,13.45-.31.15-.43.53-.27.83,0,0,0,0,0,0,5.47,10.43,8.34,21.47,8.62,33.12.16,6.43.28,17.53-6.22,20.5-5.07,2.33-10.56-1.61-11.78-6.34-.38-1.46-.32-4.24.19-8.33,1.11-8.97,1.29-20.89-3.42-29.07-.19-.34-.63-.46-.97-.26-.15.08-.26.22-.32.38-.98,2.73-1.22,7.17-3.32,9.02-4.39,3.85-10.59-1.06-13.52-4.94-1.21-1.61-2.53-4.97-3.97-10.08-.06-.23-.31-.37-.54-.31-.1.03-.19.09-.25.18-2.14,3.04-5.25,11.11-9.71,9.7-3.86-1.23-5.72-6.02-7.08-9.54-.13-.31-.36-.49-.69-.53-8.39-1.01-16.5-3.1-24.35-6.26-.35-.14-.46-.03-.34.33,2.37,6.76,3.63,12.85.4,19.64-.15.31-.13.62.06.91,1.84,2.94,3.91,5.01,1.87,8.7-1.54,2.77-3.21,5.28-5.01,7.54-.69.88-.78,2.09-.22,3.06,2.67,4.55,2.53,9.06-.41,13.51-.15.22-.14.52.02.73,4.19,5.53,7.55,10.55,10.06,15.06,2.81,5.07-3.6,10.77-7.91,11.88-.61.16-.98.78-.82,1.4,0,.03.02.06.03.09,4.21,12.06,7.69,32.83,1.26,43.72-5.87,9.93-18.26,2.08-15.12-8.67,2.94-10.09,2.49-20.1-1.35-30.05-.09-.23-.31-.37-.55-.36-4.63.21-8.75,1.69-12.37,4.45-.27.2-.56.32-.89.37-7.83,1.01-12.23-8.61-13.27-15.14-.06-.33-.24-.63-.51-.82-10.26-7.34-12.56-21.1-18.18-32.02-.08-.17-.29-.24-.46-.15-.1.05-.18.16-.19.27-.84,6.49.18,14.07-8.3,15.81-.99.2-1.79.93-2.07,1.9l-1.69,5.71c-.11.36,0,.64.32.83,9.09,5.43,5.23,10.39-1.43,14.87-3.05,2.05-4.91,4.91-5.58,8.58-1.53,8.36-5.88,13.09-13.83,16.73-6.33,2.91-12.9,5.17-19.71,6.8-.83.19-1.26.68-1.29,1.45-.29,7.25-3.43,16.85-5.77,23.86l-2.13,3.41c-.19.3-.13.68.12.92,6.92,6.43,19.66,8.18,28.51,8.27,9.02.09,16.54,3.02,13.2,14.28-2.25,4.51-6.23,7.35-11.94,8.52-13.71,2.82-28.47,2.2-42.39,1.83-9.24-.24-19.65-.72-18.56-11.84.38-3.89,1.1-7.32,2.16-10.29l4.01-10.82c.12-.31.13-.64.05-.95-.45-1.77-1.13-3.22-2.04-4.35-2.31-4.82-4-9.59-5.08-14.32-.07-.33-.28-.47-.61-.43-20.35,2.49-40.7,2.56-61.07.2-.37-.05-.6.12-.67.49-.73,3.78-1.36,7.85-3.03,11.36-.53,1.12-1.03,2.22-1.49,3.3,4.75,4.73,7.67,10.13,8.76,16.2,1.44,11.7-7.62,14.74-16.99,16.39-12.9,2.27-31.73,3.03-43.39-3.56-3.58-2.07-5.76-4.95-6.54-8.63-3.99-18.76,28.95-5.17,32.19-21.33-3.24-6.89-5.55-14.07-6.92-21.54-.07-.34-.27-.56-.6-.67-14.13-4.44-29.91-9.6-40.67-20.85-5.37-5.61-9.72-11.68-13.07-18.21-10.19-19.91-19.54-41.58-28.05-65.01-.12-.32-.23-.32-.34,0-1.21,3.59-2.88,6.97-5.01,10.12-3.61,5.38,7.34,14.44.04,17.74-.29.13-.6.19-.93.18-1.31-.07-1.82.51-2.02,1.79-1.9,12.39-.54,19.09-15.45,21.39-.23.03-.38.1-.45.2-.06.09-.09.19-.08.3.02.21.14.3.35.26,4.01-.77,11.88-3.11,14.39,1.63,4.26,8.02-4.77,11.74-11.02,12.22-.37.03-.55.23-.52.6.68,8.03,1.99,27.99-5.64,33.17-7.88,5.36-14.35-3.84-12.15-11.94,1.85-6.81,2.56-13.02,2.13-18.63-.27-3.55-4.73-4.38-4.8-9.46,0-.32-.14-.62-.39-.82-5.81-4.62-7.62-13.62-9.03-20.06-.08-.39-.29-.48-.63-.27-2.46,1.51-6.83,4.78-9.71,4.68-13.35-.49-10.07-41.71-8.78-49.55,5.96-28.46,20.72-52.06,41.78-71.58.29-.27.26-.5-.09-.69-6.35-3.36-9.46-3.62-9.36-10.68.4-28.43,1.72-56.76,3.96-85.01,1.82-24.31,4.83-48.42,9.03-72.31,6.6-37.54,22.2-72.34,52.17-96.84,9.29-7.6,20.34-14.71,33.14-21.34.31-.15.39-.38.22-.69-9.4-17.54-4.02-37.9-6.72-56.91-2.06-14.44-6.04-29.77-9.39-44.4-1.09-4.75.43-7.78,4.58-9.09,4.68-1.47,8.19,1.03,11.09,4.9,10.38,13.83,17.94,28.16,31.93,39.6,5.24,4.29,13.31,8.71,18.65,13.11,8.91,7.35,14.02,16.51,15.33,27.49.1.92.92,1.58,1.83,1.49.75-.08,1.36-.65,1.48-1.4,1.55-9.09,4.35-17.89,8.38-26.39,3.65-7.71,10.67-7.65,12.79,1.09,1.65,6.81,3.38,13.55,5.18,20.22.16.6.73,1,1.35.94,27.38-2.5,54.26.02,80.64,7.55.37.11.55-.04.54-.43-.67-23.19,14.73-30.95,27.31-46.56,3.29-4.09,6.26-8.07,8.89-11.94,5.12-7.5,16.64-5.67,13.65,4.37-1.44,4.83-4.26,12.54-8.45,23.15-4.06,10.26-5.69,16.99-3.19,26.95.07.3.26.48.57.55,5.97,1.23,8.87,4.66,8.68,10.29-.11,3.4-2.85,7.14-4.27,10.42-.15.35-.07.62.25.83,23.61,14.92,42.11,34.63,55.52,59.13.21.37.68.5,1.06.29,0,0,0,0,0,0,8.21-4.73,14.16-10.22,21.55-18.31,4.22-4.62,9.12-8.55,14.39-2.98,1.87,1.99,1.52,4.37.62,6.69-5.48,14.28-12.8,32.82-26.05,39.81-.31.16-.41.4-.3.73,3.21,10.22,5.59,20.63,7.12,31.23.05.35.25.5.6.46,5.26-.65,10.95-2.63,14.11,3.1,2.87,5.19-.12,10.76-5.54,12.6-.35.12-.43.34-.25.65,4.51,7.81,2.73,13.41-5.34,16.78-.27.11-.44.37-.43.65l.64,43.43Zm-298.09-214.73c-.17,7.68,1.43,14.79,4.8,21.33.19.37.65.52,1.02.33,0,0,.01,0,.02,0,16.37-8.82,34.04-14.16,51.87-19.12.87-.24,1.27-.81,1.22-1.7-.21-3.93-1.3-7.77-3.27-11.52-4.97-9.92-12.59-14.84-22.08-21.09-17.4-11.62-26.73-26.84-38-43.81-1.38-2.07-2.47-3.37-3.27-3.92-.95-.65-1.61-.86-1.97-.65-1.02.6-1.52,1.82-1.22,2.97,3.45,13.05,6.37,26.06,8.77,39.02,2.4,12.94,2.53,24.82,2.11,38.17Zm184.16-7.52c-3.42,12.9,1.17,21.12,13.78,24.67,5.2,1.32,9.8-.51,11.86-5.5,2.13-5.14-1.2-14.91-1.46-18.46-.53-7.3.47-14.09,3-20.36,4.19-10.41,7.43-19.09,9.73-26.05l-.12-1.61c-.03-.41-.23-.51-.59-.31-1.07.58-1.83,1.23-2.3,1.95-5.42,8.29-9.36,13.67-11.83,16.16-9.21,9.27-19.56,17.8-22.07,29.51Zm-103.05-15.57c-3.36,6.9-5.57,14.04-6.64,21.43-.06.4.11.56.5.47l5.63-1.21,7.93-1.2c.33-.05.46-.23.38-.56l-5.2-21.08c-.1-.39-.49-.62-.87-.52-.14.03-.26.11-.36.21-.69.75-1.14,1.57-1.37,2.46Zm93.84,50.96c45.84,25.05,69.22,68.63,75.8,119.14,6.06,46.47,8.45,92.58,8.52,139.45v30.39c0,.95.32,1.07.96.38,8.32-9.02,20.29-15.65,31.23-21.09.28-.14.44-.37.49-.68.62-4.25.06-9.56.07-12.41.12-28.21-.05-56.41-.52-84.6-.64-38.41-1.87-76.69-19.25-111.97-12.05-22.98-29.34-42.67-51.89-59.06-2.47-1.8-4.9-2.46-7.28-1.99-3.89.77-6.5.55-9.91-.86,0,0,0,0,0-.01,0,0,0,0,.01,0,5.04.59,8.6-.65,10.68-3.72,1.64-2.41,7.61-13.12,3.67-16.18-.42-.33-1.02-.25-1.35.17-.13.16-.2.36-.2.56-.38,13.56-9.03,19.83-21.81,14.31l-8.34-4.68c-2.54-2.95-4.67-4.67-6.38-5.15-28.27-7.95-57.01-10.73-86.2-8.34-.16,0-.29.12-.29.29,0,.16.12.29.28.29,28.94,3.31,56.18,11.9,81.71,25.77Zm-266,227.66l-1.42,46.47c-.03.86.42,1.67,1.17,2.09,20.92,11.74,45.9,19.02,69.31,23.73,22.53,4.53,45.27,7.42,68.22,8.65,6.43.57,16.02.96,28.79,1.18,36.66.63,71.82-1.75,105.48-7.15,24.12-3.73,47.8-9.23,71.04-16.52.34-.11.52-.34.53-.69,2.1-47.9-.39-96.89-5.22-143.59-1.59-15.44-3.85-29.92-6.77-43.44-3.62-14.51-9.03-28.26-16.24-41.26-6.11-10.81-13.49-20.59-22.15-29.32-32.29-30.87-80.86-46.56-124.48-47.91-3.59-.11-7.18.2-10.76.93-27.81,5.69-53.83,15.81-78.06,30.36-41.88,25.16-61.82,64.12-69.19,110.94-5.5,34.94-8.92,70.12-10.25,105.53Zm370.97-168.17l5.31,11.98c.18.39.64.57,1.03.4.06-.03.11-.06.16-.1,9.79-7.54,14.52-19.98,19.24-31.01.63-1.48,1.47-2.61,2.39-3.87.31-.42.47-.83.49-1.24.04-.73-.13-1.18-.52-1.35-1.09-.26-2.01.02-2.76.84-8.17,8.9-15.69,16.95-25.94,22.39-.35.19-.42.44-.2.77l.8,1.19Zm15.36,56.75l.32,3.25c.07.72.71,1.24,1.43,1.17l2.53-.24c2.8-.27,4.95-1.7,4.8-3.19,0,0,0,0,0,0l-.04-.46c-.15-1.49-2.53-2.47-5.33-2.2l-2.53.25c-.72.07-1.25.71-1.18,1.43h0Zm.31,10.44l.7,8.68c.02.23.23.41.46.39h.09c2.06-.18,3.58-2.13,3.4-4.38l-.11-1.38c-.18-2.25-1.99-3.94-4.05-3.78,0,0,0,0,0,0h-.09c-.23.03-.41.24-.39.47Zm2.51,77.37l-.2,6.78c-.01.26.19.48.45.49,0,0,0,0,.01,0h.15c2.14.06,3.92-1.55,3.98-3.59v-.3c.07-2.05-1.61-3.76-3.75-3.83h-.15c-.26-.01-.48.19-.49.45,0,0,0,0,0,0Zm-33.34,110.76c2.22,7.03,4.6,13.89,7.15,20.58,2.73,7.18,12.53,10.58,20.15,12.36.31.07.51-.04.61-.35.99-3.12,2.68-5.49,5.07-7.1,1.33-.93,2.49-2.23,3.48-3.89.08-.14.26-.18.4-.1.12.07.17.22.12.35l-1.68,4.43-.78,7.43c-.04.39.13.62.51.69l4.4.76c.28.05.57-.08.72-.33,1.04-1.7,2.47-2.91,4.3-3.62.42-.16.89.05,1.05.46.04.11.06.22.05.34-.22,3.62-1.12,7.85.53,11.15.21.41.42.42.65.02,6.95-12.09,12.81-21.84,25.5-28.16,4.14-2.06,6.43-8.91,7.59-13.26.22-.84-.27-1.71-1.11-1.95-2.1-.62-6.41,3.55-8.25,4.73-3.42,2.18-7.31-.81-7.79-4.22-.4-2.79,2.22-6.52,3.36-9.28.19-.48-.05-1.02-.52-1.21-.3-.12-.65-.07-.91.13-4.08,3.2-8.73,8.61-13.63,9.93-.3.08-.62.07-.92-.03-5.33-1.83-10.68-3.53-13.62-7.33-.51-4.17.91-7.24,4.26-9.2,1.45-.85,2.57-1.76,3.35-2.75.4-.52.31-1.27-.2-1.67-.16-.13-.35-.21-.56-.24-3.95-.61-8.73-.7-12.15-2.25-5.19-2.37-9.34-11.46-16-9.05-7.29,2.64-14.75,10.53-18.85,16.54-1.97,2.87,2.48,13.06,3.72,16.09Zm-358.49-17.53c-13.91,12.96-24.2,31.79-29.35,49.68-3.41,10.46-4.79,21.26-4.14,32.4.02.34.2.49.53.45l6.47-.77,4.69.66c.99.41,1.45,1.17,1.36,2.29-3.17.53-6.39,1.85-9.66,3.97-3.51,2.9-3.09,7.16,1.24,12.79.2.26.57.33.85.16,7.33-4.5,13.85-7.1,22.87-8.95,9.31-1.91,18.62-3.9,27.93-5.99.38-.09.47-.3.27-.64-1.9-3.24-4.97-7.34-3.35-11.17.4-.95-.04-2.05-.99-2.45-.01,0-.03-.01-.04-.02l-10.53-4.19c-.34-.14-.57-.45-.61-.81-.23-2.17.73-3.93,2.88-5.28,4.79.73,9.2,2.82,13.25,6.29.27.23.47.18.62-.13,1.85-3.99,4.69-10.25,3.48-14.59-1.4-5.03-2.82-9.8-4.27-14.32l-6.25-20.1-7.71-27.93c-.09-.34-.27-.39-.53-.14l-9.01,8.79Zm55.9,106.68l8.48,17.93,6.21,10.49c8.5,13.43,20.44,19.94,34.9,24.79,52.05,17.47,106.51,16.3,158.5-1.55,11.23-3.86,16.41-5.08,19.61-17.39,1.46-5.61,4.09-8.98,9.04-11.74.45-.25.81-.53,1.1-.85.42-.48.7-.85.85-1.11.69-1.21.34-1.94-1.03-2.18-4.67-.82-9.36-1.23-14.05-1.23-10.31.01-11.61-14.15-.94-15.65,3.9-.55,8.52-.77,13.86-.64,14.31.34,4.49-12.78,13.21-18.01.3-.18.43-.55.31-.88l-6.13-16.77c-.52-1.43-1.45-1.78-2.79-1.04-2.03,1.13-3.9,2.56-5.61,4.29-.25.25-.55.4-.9.44-2.89.36-6.07-1.64-4.2-4.91,2.47-4.32,6.64-8.9,9.43-13.82.87-1.53,1.91-3.07,3.13-4.6,5.93,13.81,10.09,28.47,15.4,42.56,1.92,5.1,6.72,5.78,11.14,6.71.75.15,1.23.88,1.07,1.63-.09.45-.41.83-.83,1-1.96.81-4.01,1.01-6.15.61-.23-.04-.46.11-.5.34,0,0,0,.02,0,.03-.05.37.03.72.25,1.05.85,3.27,1.96,5.81,3.35,7.62,4.62,6.03,38.76-5.84,41.46-14.17.1-.3.1-.63-.02-.93-3.01-7.71-2.68-11.99,3.15-18.04,1.47-1.53,1.23-2.69-.73-3.49-.47-.19-1.21-.04-2.22.44-4.62,2.17-5.76-2.98-7.02-5.95-.13-.31-.36-.56-.65-.73-3.67-2.09-5.73-5.29-6.19-9.59-.71-6.61,4.45-8.5,9.56-10.21,1.16-.39,1.87-1.56,1.68-2.77-1.08-6.94-2.69-12.27-5.48-19.71-3.87-10.31-6.98-20.82-9.34-31.54-.05-.22-.17-.3-.38-.23-23.01,7.48-46.89,12.85-70.55,17.6-16.37,3.31-32.76,5.88-49.17,7.72-47.95,5.63-98.5,4.52-146.24-4.07-15.22-2.74-24.18-4.12-33.97-13.53-1.48-1.41-4.22-2.92-6.16-3.51-8.11-2.45-16.02-5.27-23.74-8.46-.23-.1-.32-.03-.26.22,10.41,39.83,23.01,77.28,39.56,113.83Zm2.74-99.15c7.07,2.71,15.58,3.88,21.59,5.05,18.56,3.63,39.7,5.68,57.03,6.31,13.83.51,28.31,1.66,42.09.72.12,0,.23-.09.23-.21,0-.12-.1-.23-.22-.24h0c-2.82-.44-5.55-.84-8.49-.82-37.99.2-75.5-3.78-112.54-11.94-.16-.04-.32.06-.36.22-.01.06-.01.12.01.18.13.37.35.62.66.73Zm360.1,45.77c2.86,5.09,3.04,11.21,7.37,14.74.38.3.93.24,1.23-.13.05-.07.1-.14.13-.22l2.29-5.72c6.27-5.61,12.91-10.71,19.9-15.32.38-.25.49-.76.24-1.13-.08-.13-.2-.23-.34-.3-4.88-2.33-9.5-5.09-13.87-8.27-.25-.18-.58-.22-.86-.08-3.6,1.69-7,3.73-10.2,6.1-4.49,3.34-6.46,6.78-5.89,10.33Zm-54.77,2.27c-2.65.89-4.93,2.36-6.84,4.4-.27.28-.4.61-.39,1,.07,2.78,3.96,6,5.81,7.96.93.98,1.17,2.25,1.73,3.47.16.36.31.36.46,0,1.86-4.81,4.22-12.13.38-16.51-.29-.33-.74-.45-1.15-.31Zm83,47.26c.89.63,2.12.42,2.75-.47.05-.06.09-.13.12-.2.68-1.26,1.47-2.99,1.65-4.49,1.65-13.79-.61-26.91-6.78-39.34-.17-.36-.42-.43-.75-.2l-2.45,1.65c-.26.18-.37.52-.26.82,4.47,11.99,5.67,24.33,3.61,37.02-.36,2.23.34,3.96,2.11,5.21Zm-149.78-38.28c-.33.85-.66,1.69-1,2.52-.16.4-.05.5.33.3l1.44-.77c.26-.14.39-.44.31-.73l-.52-1.94c-.11-.4-.26-.42-.46-.05-.11.21-.14.43-.1.67Zm-281.34,43.19l2.58-13.4c.05-.29-.06-.4-.35-.34l-31.02,6.76c-.35.08-.48.29-.41.64,1.11,5.32,2.7,10.49,4.78,15.5.15.36.39.43.72.22,7.2-4.52,15.51-6.32,23.29-8.92.23-.07.36-.23.41-.46Zm327.79,10.47c-4.9,1.73-9.87,2.93-14.9,3.6-.34.04-.58.36-.53.7.03.22.18.41.38.49,3.15,1.27,6.43,1.7,9.85,1.27.31-.03.52.09.65.37.51,1.15.21,1.88-.9,2.21-1.64.49-2.88.83-3.71,1.02-.35.08-.59.4-.57.75.16,3.36,1.39,6.25,3.69,8.67.23.24.51.31.82.21l25.01-7.8c2.75-.87,5.75-2.46,9.02-4.77.6-.43.76-1.26.35-1.88l-8.7-13.24c-.16-.24-.46-.32-.71-.19-6.3,3.26-12.88,6.12-19.75,8.59Zm-65.84-.87c3.79,2.05,12.53,4.29,12.42-2.97,0-.34-.18-.53-.51-.56-2.35-.24-13.1-1.27-12.4,2.83.05.3.23.55.49.7Zm-276.37,42.73c6.31-.34,4.68-24.94,4.15-29.03-.6-4.65-1.52-8.61-2.77-11.87-.15-.4-.4-.47-.74-.22l-3.77,2.86c-.29.21-.37.49-.26.83,3.39,10.54,3.55,21.28.46,32.22-.6,2.15.09,5.37,2.93,5.21Zm16.3-38.38l-6.83-.12c-.43,0-.65.21-.65.64v2.88c0,.44.21.6.63.49,2.24-.62,4.41-1.41,6.51-2.37.44-.2.72-.47.84-.81.09-.28-.06-.59-.34-.68-.05-.02-.1-.03-.16-.03Zm344.35,54.81c1.08.71,2.54.48,3.35-.54,6.37-8.05,1.82-30.65-1.46-39.67-.11-.29-.31-.39-.61-.3l-3.39.97c-.34.1-.54.46-.44.81,0,0,0,.01,0,.02,3.8,11.17,4.26,22.34,1.39,33.51-.54,2.11-.69,3.98,1.15,5.2Zm-141.28,2.99l3.85,11.49c5.13,6.57,10.51,7.43,16.14,2.56,3.8-3.28,6.38-18.21,7.45-23.41.04-.18-.07-.37-.26-.41-.06-.01-.12-.01-.17,0-9,2.59-18.13,4.51-27.4,5.76-.4.05-.68.42-.63.82,0,.04.02.09.03.13l.99,3.05Zm-95.77,6.31c1.33,3.57,3.9,5.38,7.72,5.42,10.87.11,12.42-5.65,13.79-14.72.05-.34-.1-.54-.44-.6l-10.36-1.83-14.59-3.26c-.17-.04-.33.06-.37.23-.01.05-.01.11,0,.16l4.25,14.6Zm-25.84,30.87c14.91,5.79,28.59,5.32,43.85,1.47,11.34-2.85,5.94-15.45.68-20.74-.16-.16-.33-.15-.52.02-.21.19-.22.38-.03.58,3.07,3.29,9.39,15.72,2.29,18.18-13.59,4.7-33.12,6.17-46.51-.19-.96-.45-1.09-.35-.39.32.13.13.34.25.63.36Z"/><path class="cls-13" d="m566.61,206.96c.39-.71,1.29-.97,1.99-.58.26.14.47.36.6.62.37.73.38,1.65.03,2.74-2.5,7.78-5.15,16.02-7.94,24.72-.16.49-.69.76-1.18.6-.22-.07-.4-.22-.52-.42-3.14-5.45,4.02-22.22,7.02-27.68Z"/><path class="cls-11" d="m449.81,257.96c-2.18,3.48,3.16,4.97.9,7.95-14.78-10.25-26.13-23.48-34.05-39.7-.07-.14-.16-.26-.29-.37-1.04-.87-.23-4.38-3.1-6.25-.27-.18-.46-.42-.59-.71-1.05-2.44-2.28-6.81-5.1-7.62-.35-.1-.53.04-.52.41.08,3.16,2.25,4.67,3.24,6.74,1.6,3.37,3,6.55,4.2,9.54,2.79,13.01,7.26,27.17,9.18,38.51,1.66,9.81,2.63,19.7,2.91,29.69,0,.31.1.58.29.83l.56.74c-4.3-.1-8.94-4.62-11.21-7.98.42-13.35.29-25.23-2.11-38.17-2.4-12.96-5.32-25.97-8.77-39.02-.3-1.15.2-2.37,1.22-2.97.36-.21,1.02,0,1.97.65.8.55,1.89,1.85,3.27,3.92,11.27,16.97,20.6,32.19,38,43.81Z"/><path class="cls-2" d="m450.71,265.91l17.68,14.07c.26.21.56.3.89.27,1.58-.12,2.45-.52,2.61-1.2,1.97,3.75,3.06,7.59,3.27,11.52.05.89-.35,1.46-1.22,1.7-17.83,4.96-35.5,10.3-51.87,19.12-.37.2-.83.07-1.03-.3,0,0,0-.01,0-.02-3.37-6.54-4.97-13.65-4.8-21.33,2.27,3.36,6.91,7.88,11.21,7.98,5.46-2.73,10.85-5.69,16.16-8.86,5.42-3.23,2.15-10-.54-13.93-7.26-10.59-14.3-21.33-21.12-32.24-3.01-4.82-3.86-9.86-7.44-14.74-1.2-2.99-2.6-6.17-4.2-9.54-.99-2.07-3.16-3.58-3.24-6.74,0-.37.17-.51.52-.41,2.82.81,4.05,5.18,5.1,7.62.13.29.32.53.59.71,2.87,1.87,2.06,5.38,3.1,6.25.13.11.22.23.29.37,7.92,16.22,19.27,29.45,34.05,39.7Z"/><ellipse class="cls-13" cx="480.94" cy="227.58" rx="9.04" ry="9.51"/><path class="cls-4" d="m414.5,227.95c3.58,4.88,4.43,9.92,7.44,14.74,6.82,10.91,13.86,21.65,21.12,32.24,2.69,3.93,5.96,10.7.54,13.93-5.31,3.17-10.7,6.13-16.16,8.86l-.56-.74c-.19-.25-.28-.52-.29-.83-.28-9.99-1.25-19.88-2.91-29.69-1.92-11.34-6.39-25.5-9.18-38.51Z"/><path class="cls-11" d="m637.3,236.52c-5.31,1.6-4.02,6.96-6.42,10.84-1.78,2.87-2.71,4.39-2.79,4.56-1.97,4.01-3.51,6.69-4.62,8.04-3.96,4.79-7.5,9.37-10.63,13.72-3.38,1.69-6.52,7.74-8.39,11.07-.15.29-.51.39-.8.24-.14-.08-.25-.21-.29-.37-.39-1.33-1.38-2.13-2.97-2.4,2.51-11.71,12.86-20.24,22.07-29.51,2.47-2.49,6.41-7.87,11.83-16.16.47-.72,1.23-1.37,2.3-1.95.36-.2.56-.1.59.31l.12,1.61Z"/><path class="cls-2" d="m637.3,236.52c-2.3,6.96-5.54,15.64-9.73,26.05-2.53,6.27-3.53,13.06-3,20.36.26,3.55,3.59,13.32,1.46,18.46-2.06,4.99-6.66,6.82-11.86,5.5,3.79-4.28.23-6.12-1.59-9.43-3.97-7.19-3.88-15.11.26-23.78,3.13-4.35,6.67-8.93,10.63-13.72,1.11-1.35,2.65-4.03,4.62-8.04.08-.17,1.01-1.69,2.79-4.56,2.4-3.88,1.11-9.24,6.42-10.84Z"/><ellipse class="cls-13" cx="566.77" cy="261.33" rx="10.97" ry="11.24" transform="translate(-42.9 127.8) rotate(-12.4)"/><path class="cls-13" d="m367.4,251.88c0-.31.16-.6.42-.78.86-.59,1.6-.47,2.21.37,8.49,11.61,14.86,23.35,19.11,35.21.49,1.36.22,2.43-.79,3.22-.34.27-.58.2-.73-.21-.95-2.76-1.98-5.11-3.51-7.66-4.71-7.82-9.42-15.63-14.15-23.44-1.61-2.66-2.59-4.25-2.56-6.71Z"/><path class="cls-4" d="m449.81,257.96c9.49,6.25,17.11,11.17,22.08,21.09-.16.68-1.03,1.08-2.61,1.2-.33.03-.63-.06-.89-.27l-17.68-14.07c2.26-2.98-3.08-4.47-.9-7.95Z"/><path class="cls-2" d="m496.83,287.34c.06-4.55-.07-9.03-.38-13.44-.19-2.69.77-4.57.89-7.25.23-.89.68-1.71,1.37-2.46.27-.29.72-.31,1.02-.05.1.1.18.22.21.36l5.2,21.08c.08.33-.05.51-.38.56l-7.93,1.2Z"/><path class="cls-11" d="m497.34,266.65c-.12,2.68-1.08,4.56-.89,7.25.31,4.41.44,8.89.38,13.44l-5.63,1.21c-.39.09-.56-.07-.5-.47,1.07-7.39,3.28-14.53,6.64-21.43Z"/><path class="cls-4" d="m612.84,273.68c-4.14,8.67-4.23,16.59-.26,23.78,1.82,3.31,5.38,5.15,1.59,9.43-12.61-3.55-17.2-11.77-13.78-24.67,1.59.27,2.58,1.07,2.97,2.4.08.32.41.5.72.42.16-.04.29-.15.37-.29,1.87-3.33,5.01-9.38,8.39-11.07Z"/><path class="cls-13" d="m661.65,282.15c.25-.64.97-.95,1.61-.7.59.23.91.87.74,1.48-.37,1.52-1.01,2.82-1.94,3.89-.2.22-.54.25-.76.05-.1-.08-.16-.2-.18-.33-.23-1.55-.06-3.02.53-4.39Z"/><path class="cls-11" d="m602.06,304.75l-.54.58c-9.41-10.97-19.07,5.21-8.44,8.57l-1.9,3.71c-25.53-13.87-52.77-22.46-81.71-25.77-.16,0-.29-.13-.29-.3,0-.16.13-.29.3-.28,29.19-2.39,57.93.39,86.2,8.34,1.71.48,3.84,2.2,6.38,5.15Z"/><path class="cls-4" d="m688.48,376.22l-7.6,7.82c-.29.3-.58.31-.89.03-5.56-4.98-10.12-11.93-15.41-17.41-5-5.18-10.43-11.4-17.02-16.12-1.13-.81-2.48-2.04-4.06-3.69-2.26-2.37-4.79-3.85-7.6-4.44-8.41-8.39-17.67-16.04-27.78-22.97.91-.33,1.27-1.02,1.09-2.07l9.17,3.6c.15.05.27.02.37-.09.07-.08.15-.16.23-.23.12-.11.13-.29.02-.41-.02-.02-.05-.04-.08-.06l-9.22-4.88c.58-.56.39-1.26-.58-2.09-.27-.24-.33-.53-.17-.86l1.45-2.92c12.78,5.52,21.43-.75,21.81-14.31.01-.53.46-.95.99-.93.2,0,.4.08.56.2,3.94,3.06-2.03,13.77-3.67,16.18-2.08,3.07-5.64,4.31-10.68,3.72,0,0-.01,0-.01,0,0,0,0,.01,0,.01h0c3.41,1.41,6.02,1.63,9.91.86,2.38-.47,4.81.19,7.28,1.99,22.55,16.39,39.84,36.08,51.89,59.06Z"/><ellipse class="cls-13" cx="383.76" cy="299.91" rx="1.58" ry="3.06" transform="translate(-86.46 172.97) rotate(-22.9)"/><path class="cls-13" d="m617.92,345.42l-2.4,1.38c-.31.18-.63.18-.94.01-49.98-27.52-109.65-23.36-157.41,6.85-13.32,8.43-24.61,16.73-33.86,24.9-15.59,13.76-25.36,26.73-37.89,43.37-4.48,5.96-11.75,4.36-13.18-2.77-1.95-9.68.04-19.28,4.17-28.76,18.37-42.11,55.83-57.83,94.22-76.57.44-.21.62-.74.4-1.18-.15-.31-.48-.51-.82-.49-29,.82-58.85,17.1-80.7,35.38-5.6,4.69-10.28,9.17-14.03,13.42-4.51,5.1-8.35,10.35-11.5,15.76-2.41,4.13-6.4,8.6-6.99,12.25-.08.57.32,1.1.9,1.18.43.06.85-.15,1.06-.53l3.96-7.64c.17-.33.58-.45.91-.28.23.12.37.37.35.62-.21,2.97-2.17,5.73-2.98,7.67-14.48,34.67-20.7,71.02-24.84,108.36-2.08,18.86-2.23,38.33-3.08,57.38-.07,1.77-.63,3.4-.91,5.2-.07.46-.23.49-.46.09l-.25-.43c-.06-.09-.18-.12-.27-.07-.04.02-.07.06-.09.11l-.1.28c-.13.39-.3.42-.53.07-.65-.99-.8-2.01-.43-3.06.1-.29.09-.56-.04-.83l-2.03-4.35c-.11-.22-.16-.21-.16.04v1.45c0,.79-.13.81-.4.07-1.02-2.79-1.42-5.65-1.21-8.57.02-.32-.09-.67-.32-1.05-.15-.25-.27-.24-.34.05-.16.6-.34.78-.55.53,1.33-35.41,4.75-70.59,10.25-105.53,7.37-46.82,27.31-85.78,69.19-110.94,24.23-14.55,50.25-24.67,78.06-30.36,3.58-.73,7.17-1.04,10.76-.93,43.62,1.35,92.19,17.04,124.48,47.91Z"/><path class="cls-16" d="m601.52,305.33c5.01,3.18-3.06,8.32-6.12,8.95l-2.32-.38c-10.63-3.36-.97-19.54,8.44-8.57Zm-2.45,2.78c0-2.16-1.75-3.91-3.91-3.91h0c-2.16,0-3.91,1.75-3.91,3.91s1.75,3.91,3.91,3.91c2.16,0,3.91-1.75,3.91-3.91h0Z"/><circle class="cls-1" cx="595.16" cy="308.11" r="3.91"/><path class="cls-6" d="m602.06,304.75l8.34,4.68-1.45,2.92c-.16.33-.1.62.17.86.97.83,1.16,1.53.58,2.09-.97-.32-1.61-.83-1.91-1.53-.35-.82-1.3-1.19-2.12-.84-.19.08-.36.2-.5.34-2.35,2.37-5.26,3.15-8.74,2.32-.09-.47-.43-.91-1.03-1.31,3.06-.63,11.13-5.77,6.12-8.95l.54-.58Z"/><path class="cls-12" d="m617.92,345.42c8.66,8.73,16.04,18.51,22.15,29.32l-.11,1.54c-.05.65-.17.66-.36.04-.43-1.41-1.28-2.44-2.57-3.09-.31-.15-.55-.38-.72-.68-2.12-3.61-6.11-10.39-10.58-11.9-.4-.13-.85-.38-1.36-.74-2.47-1.77-6.7-4.48-12.68-8.13-3.53-2.16-7.76-3.63-11.57-5.69-1.35-.73-3.04-.23-3.77,1.13-.21.39-.32.82-.33,1.26-.05,3.49-.54,6.38-.19,10.31.28,3.11-.51,6.45-.54,9.3-.1,9.5-2.89,17.21-2.71,27.91.05,2.91-1.35,5.4-1.28,8.55,0,.36-.08.72-.25,1.03-1.52,2.75-1.99,5.71-1.42,8.89.05.28,0,.56-.14.81-1.16,2.07-.42,4.37-.6,6.05-.35,3.21-.55,6.45-.58,9.74,0,.28-.18.54-.44.65-1.13.48-1.85,1.34-2.15,2.59-.03.12.04.25.17.28.07.02.14,0,.19-.04.61-.43.92-.33.95.3,0,.15.02.29.06.43.29.99.11,1.87-.52,2.64-.22.27-.3.57-.24.92,3.24,19.35,3.93,37.14,3.16,60.59-.77,23.35-1.45,46.71-2.06,70.07-.25,9.93.04,16.75-6.31,23.23-1.15,1.17-2.62,2.03-4.43,2.57-15.29,4.6-27.94,5.39-46.94,7.45-9.97,1.09-16.73,1.7-20.28,1.84-1.3.05-1.88.52-2.72,1.41l-24.92,1.02c-.25,0-.27.08-.07.23.09.07.2.1.31.11,4.73.28,9.45.42,14.17.41l.34.3c.21.19.23.52.04.73-.09.11-.23.17-.37.17-5.65.11-11.29.21-16.94.3-.51,0-.88.16-1.11.45-.25.33-.17.51.24.54,3.42.21,6.57.31,10.11.76,16.48,2.07,36.01.47,51.73-.52,13.67-.85,27.68-3.46,41.39-6.08.31-.06.52.06.63.35l2.03,5.22c.26.66-.07,1.41-.73,1.67-.04.02-.08.03-.12.04-26.45,7.48-54.14,8.62-81.3,12.24-3.71.5-7.38.79-11.03.86-9.55.2-19.12.67-28.69,1.41-22.95-1.23-45.69-4.12-68.22-8.65-23.41-4.71-48.39-11.99-69.31-23.73-.75-.42-1.2-1.23-1.17-2.09l1.42-46.47c.21.25.39.07.55-.53.07-.29.19-.3.34-.05.23.38.34.73.32,1.05-.21,2.92.19,5.78,1.21,8.57.27.74.4.72.4-.07v-1.45c0-.25.05-.26.16-.04l2.03,4.35c.13.27.14.54.04.83-.37,1.05-.22,2.07.43,3.06.23.35.4.32.53-.07l.1-.28c.04-.1.15-.16.25-.13.04.02.08.05.11.09l.25.43c.23.4.39.37.46-.09.28-1.8.84-3.43.91-5.2.85-19.05,1-38.52,3.08-57.38,4.14-37.34,10.36-73.69,24.84-108.36.81-1.94,2.77-4.7,2.98-7.67.02-.37-.27-.68-.64-.7-.26-.01-.5.12-.62.35l-3.96,7.64c-.28.51-.92.69-1.43.41-.38-.21-.59-.63-.53-1.06.59-3.65,4.58-8.12,6.99-12.25,3.15-5.41,6.99-10.66,11.5-15.76,3.75-4.25,8.43-8.73,14.03-13.42,21.85-18.28,51.7-34.56,80.7-35.38.49-.02.89.36.91.85.01.35-.18.67-.49.82-38.39,18.74-75.85,34.46-94.22,76.57-4.13,9.48-6.12,19.08-4.17,28.76,1.43,7.13,8.7,8.73,13.18,2.77,12.53-16.64,22.3-29.61,37.89-43.37,9.25-8.17,20.54-16.47,33.86-24.9,47.76-30.21,107.43-34.37,157.41-6.85.31.17.63.17.94-.01l2.4-1.38Zm-205.24,89.42c4.13.84,8.54-3.67,9.85-10.07,1.3-6.4-.99-12.27-5.13-13.12h0c-4.13-.84-8.54,3.67-9.85,10.07s.99,12.27,5.13,13.12Zm-26.05,111.84c13.59.31,24.91-12.51,25.28-28.63h0c.37-16.12-10.36-29.44-23.95-29.75h0c-13.59-.31-24.91,12.51-25.28,28.63h0c-.37,16.12,10.36,29.44,23.95,29.75h0Zm167.74,5.62c14.44.93,27.02-11.76,28.09-28.36h0c1.07-16.59-9.76-30.8-24.2-31.74s-27.02,11.76-28.09,28.36h0c-1.07,16.59,9.76,30.8,24.2,31.74Zm-134.16-1.37l4.82,1.06c.39.09.7.29.94.6,1.79,2.36,3.64,4.67,5.54,6.92,12.72,15.1,32.19,19.03,51.33,15.86,11.21-1.86,19.99-8.01,26.32-18.46.17-.29.43-.45.76-.49,2.32-.32,8.82-.21,7.45-4.15-.23-.67-.89-1.1-1.6-1.03-30.73,3-63.92,2.29-94-4.77-1.84-.44-3.17.05-3.33,2.09-.08,1.12.67,2.13,1.77,2.37Zm-89.7,21.4c-.7,7.52,39.26,15.04,44.61,15.56,3.45.34,3.47.17.08-.52-15.36-3.12-29.99-8.28-43.89-15.48-.48-.25-.75-.11-.8.44Zm146.7,12.02c.13.75.1,1.29-.09,1.62-.13.21-.55.28-1.25.21-.53-.05-1.05,0-1.54.16-.53.18-.52.28.05.3,4.52.15,7.87.28,13.17-.08,5.34-.37,9.65.49,15.86-.51.19-.03.3-.15.33-.34l.05-.32c.04-.33.23-.48.57-.45,5.91.59,12.38.11,19.4-1.42,5.02-1.1,16.46-3.09,34.31-5.97.05,0,.09-.04.11-.09.03-.1.07-.2.1-.3.03-.09,0-.12-.09-.09-2.83.92-4.65.7-5.48-.66l8.62-1.57c.46-.09.5-.2.13-.33-.11-.04-.27-.05-.46-.02-25.09,3.47-51.7,6.39-79.83,8.78-3.92.33-8.04.42-11.92.97-.06.02-.09.09-.07.15.01.04.05.07.09.08l7.94-.12Z"/><path class="cls-16" d="m609.7,315.3l9.22,4.88c.14.08.2.25.12.39-.02.03-.04.06-.06.08-.08.07-.16.15-.23.23-.1.11-.22.14-.37.09l-9.17-3.6c-1.35-1.55-3.11-1.91-5.26-1.1-.35.13-.36.3-.05.49l4.22,2.68c10.11,6.93,19.37,14.58,27.78,22.97,19.14,21.39,32,45.94,38.57,73.65.09.41.31.49.66.26,2.71-1.86,5.22-1.94,7.53-.24,4.37,3.21,5.83,7.76,4.36,13.67-.85,3.42-5.27,6.58-8.29,3.61-.21-.2-.55-.2-.75,0-.11.11-.17.27-.14.43.91,6.98,1.59,13.99,2.05,21.02,2.73,41.68,2.15,84.29,4.68,124.94.07,1.16-.38,1.8-1.35,1.93-.5.07-.95-.28-1.02-.77l-1.02-7.69c-.79-25.29-1.46-50.59-2.03-75.92-1.01-45.12-4-87.24-24.6-125.45-13.05-24.19-33.67-43.48-58.12-56.27,3.48.83,6.39.05,8.74-2.32.63-.63,1.65-.63,2.28,0,.15.14.26.32.34.5.3.7.94,1.21,1.91,1.53Zm66.34,104.33l1.52,9.05c.16.95,1.06,1.6,2.01,1.44l.68-.12c2.71-.45,4.47-3.48,3.92-6.76,0,0,0,0,0,0l-.1-.63c-.55-3.28-3.2-5.57-5.91-5.11,0,0,0,0,0,0l-.68.11c-.95.16-1.6,1.06-1.44,2.01,0,0,0,0,0,0Z"/><path class="cls-4" d="m593.08,313.9l2.32.38c.6.4.94.84,1.03,1.31,24.45,12.79,45.07,32.08,58.12,56.27,20.6,38.21,23.59,80.33,24.6,125.45.57,25.33,1.24,50.63,2.03,75.92l-.19,1.26c-.05.33-.21.39-.47.19-1.49-1.16-3.16-.65-5.02,1.52-.07-46.87-2.46-92.98-8.52-139.45-6.58-50.51-29.96-94.09-75.8-119.14l1.9-3.71Z"/><path class="cls-6" d="m609.21,317.37c.18,1.05-.18,1.74-1.09,2.07l-4.22-2.68c-.31-.19-.3-.36.05-.49,2.15-.81,3.91-.45,5.26,1.1Z"/><path class="cls-2" d="m635.9,342.41c2.81.59,5.34,2.07,7.6,4.44,1.58,1.65,2.93,2.88,4.06,3.69,6.59,4.72,12.02,10.94,17.02,16.12,5.29,5.48,9.85,12.43,15.41,17.41.31.28.6.27.89-.03l7.6-7.82c17.38,35.28,18.61,73.56,19.25,111.97.47,28.19.64,56.39.52,84.6-.01,2.85.55,8.16-.07,12.41-.05.31-.21.54-.49.68-10.94,5.44-22.91,12.07-31.23,21.09-.64.69-.96.57-.96-.38v-30.39c1.86-2.17,3.53-2.68,5.02-1.52.26.2.42.14.47-.19l.19-1.26,1.02,7.69c.07.49.52.84,1.02.77.97-.13,1.42-.77,1.35-1.93-2.53-40.65-1.95-83.26-4.68-124.94-.46-7.03-1.14-14.04-2.05-21.02-.04-.29.16-.55.45-.58.16-.02.32.03.44.14,3.02,2.97,7.44-.19,8.29-3.61,1.47-5.91.01-10.46-4.36-13.67-2.31-1.7-4.82-1.62-7.53.24-.35.23-.57.15-.66-.26-6.57-27.71-19.43-52.26-38.57-73.65Zm59.79,148.96c3.73-.52,6.13-5.34,5.38-10.78h0c-.75-5.44-4.39-9.43-8.11-8.91t0,0c-3.73.52-6.13,5.34-5.38,10.78t0,0c.75,5.44,4.39,9.43,8.11,8.91,0,0,0,0,0,0Zm-3.09,73.94c4.04-.49,6.79-5.28,6.13-10.69-.66-5.42-4.46-9.41-8.5-8.92h0c-4.04.49-6.79,5.28-6.13,10.69.66,5.42,4.46,9.41,8.5,8.92h0Z"/><path class="cls-14" d="m640.07,374.74c7.21,13,12.62,26.75,16.24,41.26h-3.76c-.33.01-.6.13-.83.37-.81.89-1.82,1.25-3.03,1.1-.52-.07-.89-.54-.82-1.06,0-.06.02-.13.04-.19,1.25-3.67-.91-6.91-2.32-10.21-.13-.31-.32-.57-.56-.79-1.73-1.59-1.32-3.63-3.16-4.97-.41-.29-.98-.21-1.27.2-.09.12-.14.26-.16.4-.37,2.63-.43,4.74-1.33,7.45-1.31,3.94-.83,8.36-1.34,11.9-.61,4.27-.88,8.56-.79,12.89,0,.05,0,.09-.04.1-.09.03-.17.05-.25.08-.06.02-.09.06-.1.13-.92,13.63-2.8,27.5-4.02,40.75-1.16,12.63-3.07,23.89-3.11,37.64,0,.14-.07.21-.2.21h-.28c-.16,0-.29.12-.29.28,0,.01,0,.03,0,.04.3,2.77-.07,5.25.55,8.04.78,3.57.2,6.11-1.73,7.6l-12.59,2.28c-.2.03-.22.11-.05.23.11.07.21.1.3.07.07-.03.13-.04.17-.04,6.33-.41,12.48-.89,18.46-1.45,1.17,3.13,1.22,6.18.16,9.16-.12.33-.12.69-.01,1.02,1.04,3.05,1.51,5.85,1.42,8.41l-6.46,1.6c-1.31.33-.87.51,1.3.54.44,0,.53.19.27.54l-.41.56c-.22.3-.31.64-.26,1.01.58,4.7-.3,9.9-.28,13.87.02,3.81.04,6.66-.77,10.73-.32,1.63-.49,3.29-.52,4.97-.04,2.69-1.09,5.01-1.12,7.75,0,.33-.09.64-.25.92-3.01,5.34-9.81,8.79-17.06,13.69-.57.38-.79,1.01-.66,1.89.04.29-.08.47-.36.54-.35.09-.61.27-.77.54l-13.52,3.35c-.16.04-.26.2-.22.36.02.09.09.17.18.21.35.13.81.1,1.38-.1,1.33,2.29,1.62,4.8.85,7.51-.09.31-.05.6.1.89.19.35.17.76-.06,1.23-33.66,5.4-68.82,7.78-105.48,7.15-12.77-.22-22.36-.61-28.79-1.18,9.57-.74,19.14-1.21,28.69-1.41,3.65-.07,7.32-.36,11.03-.86,27.16-3.62,54.85-4.76,81.3-12.24.69-.19,1.08-.91.89-1.59-.01-.04-.02-.08-.04-.12l-2.03-5.22c-.11-.29-.32-.41-.63-.35-13.71,2.62-27.72,5.23-41.39,6.08-15.72.99-35.25,2.59-51.73.52-3.54-.45-6.69-.55-10.11-.76-.41-.03-.49-.21-.24-.54.23-.29.6-.44,1.11-.45,5.65-.09,11.29-.19,16.94-.3.28,0,.51-.24.5-.52,0-.14-.06-.28-.17-.38l-.34-.3c31.77-.41,63.26-3.55,94.47-9.42.83-.16,2.91.08,3.18,0,3.04-.99,2.98-1.25-.19-.8-21.15,3.03-42.55,5.51-64.2,7.45-8.7.78-16.28,1.12-22.75,1.01.84-.89,1.42-1.36,2.72-1.41,3.55-.14,10.31-.75,20.28-1.84,19-2.06,31.65-2.85,46.94-7.45,1.81-.54,3.28-1.4,4.43-2.57,6.35-6.48,6.06-13.3,6.31-23.23.61-23.36,1.29-46.72,2.06-70.07.77-23.45.08-41.24-3.16-60.59-.06-.35.02-.65.24-.92.63-.77.81-1.65.52-2.64-.04-.14-.06-.28-.06-.43-.03-.63-.34-.73-.95-.3-.1.08-.25.05-.32-.05-.04-.06-.05-.13-.04-.19.3-1.25,1.02-2.11,2.15-2.59.26-.11.43-.37.44-.65.03-3.29.23-6.53.58-9.74.18-1.68-.56-3.98.6-6.05.14-.25.19-.53.14-.81-.57-3.18-.1-6.14,1.42-8.89.17-.31.26-.67.25-1.03-.07-3.15,1.33-5.64,1.28-8.55-.18-10.7,2.61-18.41,2.71-27.91.03-2.85.82-6.19.54-9.3-.35-3.93.14-6.82.19-10.31.03-1.54,1.3-2.75,2.84-2.72.44,0,.88.12,1.26.33,3.81,2.06,8.04,3.53,11.57,5.69,5.98,3.65,10.21,6.36,12.68,8.13.51.36.96.61,1.36.74,4.47,1.51,8.46,8.29,10.58,11.9.17.3.41.53.72.68,1.29.65,2.14,1.68,2.57,3.09.19.62.31.61.36-.04l.11-1.54Z"/><path class="cls-11" d="m724.25,351.91c-1.72,1.31-3.12,2.79-4.19,4.45-1.38,2.15-3.15,3.55-4.65,5.49-.22.27-.35.59-.39.94-.09.82-.54,1.35-1.35,1.6-.32.1-.59.29-.78.56-4.46,6.23-10.04,10.28-16.74,12.15l-.8-1.19c-.22-.33-.15-.58.2-.77,10.25-5.44,17.77-13.49,25.94-22.39.75-.82,1.67-1.1,2.76-.84Z"/><path class="cls-2" d="m724.25,351.91c.39.17.56.62.52,1.35-.02.41-.18.82-.49,1.24-.92,1.26-1.76,2.39-2.39,3.87-4.72,11.03-9.45,23.47-19.24,31.01-.34.26-.83.2-1.09-.14-.04-.05-.07-.1-.1-.16l-5.31-11.98c6.7-1.87,12.28-5.92,16.74-12.15.19-.27.46-.46.78-.56.81-.25,1.26-.78,1.35-1.6.04-.35.17-.67.39-.94,1.5-1.94,3.27-3.34,4.65-5.49,1.07-1.66,2.47-3.14,4.19-4.45Z"/><path class="cls-10" d="m656.31,416c2.92,13.52,5.18,28,6.77,43.44,4.83,46.7,7.32,95.69,5.22,143.59-.01.35-.19.58-.53.69-23.24,7.29-46.92,12.79-71.04,16.52.23-.47.25-.88.06-1.23-.15-.29-.19-.58-.1-.89.77-2.71.48-5.22-.85-7.51,19.49-2.56,38.58-7.17,57.25-13.83,1.77-.63,3.65-1.75,5.08-2.81.56-.42.68-1.21.27-1.77-.16-.22-.39-.38-.65-.46-1.25-.38-2.69-.72-3.99-.18-14.92,6.11-30.18,11.19-45.78,15.23.16-.27.42-.45.77-.54.28-.07.4-.25.36-.54-.13-.88.09-1.51.66-1.89,7.25-4.9,14.05-8.35,17.06-13.69.16-.28.24-.59.25-.92.03-2.74,1.08-5.06,1.12-7.75.03-1.68.2-3.34.52-4.97.81-4.07.79-6.92.77-10.73-.02-3.97.86-9.17.28-13.87-.05-.37.04-.71.26-1.01l.41-.56c.26-.35.17-.53-.27-.54-2.17-.03-2.61-.21-1.3-.54,8.41-.55,16.7-1.57,24.87-3.06,1.69-.31,3.12-.8,4.28-1.49.95-.58,1.25-1.82.67-2.78-.48-.78-1.42-1.15-2.3-.88l-21.06,6.61c.09-2.56-.38-5.36-1.42-8.41-.11-.33-.11-.69.01-1.02,1.06-2.98,1.01-6.03-.16-9.16,8.04-1.01,15.84-2.44,23.41-4.28,1.9-.46,2.5-1.68,1.8-3.67-.21-.6-.76-1.01-1.39-1.07-3.96-.36-7.2,2.05-10.06,2.92-6.76,2.05-13.44,3.72-20.05,5.01,1.93-1.49,2.51-4.03,1.73-7.6-.62-2.79-.25-5.27-.55-8.04-.02-.15.09-.3.25-.32.01,0,.03,0,.04,0h.28c.13,0,.2-.07.2-.21.04-13.75,1.95-25.01,3.11-37.64,1.22-13.25,3.1-27.12,4.02-40.75,0-.07.04-.11.1-.13.08-.03.16-.05.25-.08.03-.01.05-.05.04-.1-.09-4.33.18-8.62.79-12.89.51-3.54.03-7.96,1.34-11.9.9-2.71.96-4.82,1.33-7.45.07-.49.53-.83,1.02-.76.15.02.29.08.41.16,1.84,1.34,1.43,3.38,3.16,4.97.24.22.43.48.56.79,1.41,3.3,3.57,6.54,2.32,10.21-.17.5.09,1.04.59,1.21.06.02.12.04.19.04,1.21.15,2.22-.21,3.03-1.1.23-.24.5-.36.83-.36h3.76Zm-18,169.31c5.97-1.26,11.49-3.24,16.58-5.93.26-.12.36-.43.23-.68-.11-.23-.38-.34-.62-.27-5.85,1.69-11.49,3.93-16.92,6.71-.09.04-.12.14-.09.22.02.04.05.07.09.09.28.13.52.08.73-.14Z"/><ellipse class="cls-13" cx="415.04" cy="423.25" rx="11.83" ry="7.64" transform="translate(-82.46 745.58) rotate(-78.5)"/><path class="cls-1" d="m676.04,419.63c-.16-.95.48-1.86,1.43-2.02,0,0,0,0,0,0l.68-.11c2.71-.46,5.36,1.83,5.91,5.11,0,0,0,0,0,0l.1.63c.55,3.28-1.21,6.31-3.92,6.76,0,0,0,0,0,0l-.68.12c-.95.16-1.85-.49-2.01-1.44l-1.52-9.05Z"/><path class="cls-2" d="m711.51,433.85c-.07-.72.46-1.36,1.18-1.43,0,0,0,0,0,0l2.53-.25c2.8-.27,5.18.71,5.33,2.2l.04.46c.15,1.49-1.99,2.92-4.79,3.2,0,0,0,0-.01,0l-2.53.24c-.72.07-1.36-.45-1.43-1.17l-.32-3.25Z"/><path class="cls-5" d="m711.82,444.29c-.02-.23.16-.44.39-.46h.09c2.06-.18,3.88,1.51,4.06,3.76,0,0,0,0,0,0l.11,1.38c.18,2.25-1.34,4.2-3.4,4.37h-.09c-.23.03-.44-.15-.46-.38l-.7-8.68Z"/><path class="cls-16" d="m695.69,491.37c-3.73.52-7.36-3.47-8.11-8.91h0c-.75-5.44,1.65-10.26,5.38-10.78,0,0,0,0,0,0,3.73-.52,7.36,3.47,8.11,8.91h0c.75,5.44-1.65,10.26-5.38,10.78h0Zm-1.83-3.9c2.47-.21,4.21-3.43,3.89-7.19s-2.57-6.65-5.04-6.44h0c-2.47.21-4.21,3.43-3.89,7.19s2.57,6.65,5.04,6.44c0,0,0,0,0,0Z"/><ellipse class="cls-4" cx="693.28" cy="480.65" rx="4.48" ry="6.84" transform="translate(-37.79 59.7) rotate(-4.8)"/><path class="cls-16" d="m386.63,546.68c-13.59-.31-24.32-13.63-23.95-29.75h0c.37-16.12,11.68-28.94,25.28-28.63h0c13.59.31,24.32,13.63,23.95,29.75h0c-.37,16.12-11.68,28.94-25.28,28.63h0Zm-2.09-38.94c.95-3.58-1.37-7.3-5.18-8.31,0,0,0,0,0,0-3.81-1.01-7.66,1.08-8.61,4.67h0c-.95,3.58,1.37,7.3,5.18,8.31h0c3.81,1.01,7.66-1.08,8.61-4.67,0,0,0,0,0,0Z"/><path class="cls-16" d="m554.37,552.31c-14.44-.93-25.28-15.14-24.2-31.74,1.07-16.59,13.65-29.29,28.09-28.36h0c14.44.93,25.28,15.14,24.2,31.74-1.07,16.59-13.65,29.29-28.09,28.36h0Zm-.57-40.66c.66-3.57-2.06-7.07-6.09-7.82-4.02-.75-7.82,1.55-8.48,5.12-.66,3.57,2.06,7.07,6.09,7.82,4.02.75,7.82-1.55,8.48-5.12Z"/><ellipse class="cls-13" cx="377.64" cy="505.92" rx="6.71" ry="7.13" transform="translate(-207.96 741.8) rotate(-75.2)"/><ellipse class="cls-13" cx="546.51" cy="510.3" rx="6.58" ry="7.41" transform="translate(-54.84 954.66) rotate(-79.5)"/><path class="cls-11" d="m633.8,529.05c-5.98.56-12.13,1.04-18.46,1.45-.04,0-.1.01-.17.04-.09.03-.19,0-.3-.07-.17-.12-.15-.2.05-.23l12.59-2.28c6.61-1.29,13.29-2.96,20.05-5.01,2.86-.87,6.1-3.28,10.06-2.92.63.06,1.18.47,1.39,1.07.7,1.99.1,3.21-1.8,3.67-7.57,1.84-15.37,3.27-23.41,4.28Z"/><path class="cls-2" d="m714.33,521.66c.01-.26.23-.46.49-.45,0,0,0,0,0,0h.15c2.14.07,3.82,1.78,3.76,3.83v.3c-.07,2.04-1.85,3.65-3.99,3.59h-.15c-.26,0-.47-.22-.46-.48,0,0,0,0,0-.01l.2-6.78Z"/><path class="cls-11" d="m628.91,549.24l6.46-1.6,21.06-6.61c1.07-.32,2.19.29,2.51,1.36.26.88-.1,1.82-.88,2.3-1.16.69-2.59,1.18-4.28,1.49-8.17,1.49-16.46,2.51-24.87,3.06Z"/><path class="cls-16" d="m692.6,565.31c-4.04.49-7.85-3.51-8.5-8.92h0c-.66-5.42,2.09-10.2,6.13-10.69s7.85,3.51,8.5,8.92h0c.66,5.42-2.09,10.2-6.13,10.69Zm-2.39-4.05c2.51-.01,4.53-3,4.52-6.66-.02-3.67-2.07-6.63-4.58-6.62h0c-2.51.01-4.53,3-4.52,6.66.02,3.67,2.07,6.63,4.58,6.62Z"/><path class="cls-16" d="m420.21,550.94c-1.1-.24-1.85-1.25-1.77-2.37.16-2.04,1.49-2.53,3.33-2.09,30.08,7.06,63.27,7.77,94,4.77.71-.07,1.37.36,1.6,1.03,1.37,3.94-5.13,3.83-7.45,4.15-.33.04-.59.2-.76.49-6.33,10.45-15.11,16.6-26.32,18.46-19.14,3.17-38.61-.76-51.33-15.86-1.9-2.25-3.75-4.56-5.54-6.92-.24-.31-.55-.51-.94-.6l-4.82-1.06Zm21.16,10.49c1.81,2.1,4.13,3.67,6.98,4.72.35.13.66.07.94-.17l6.3-5.39,6.7-2.77c.07-.04.09-.13.05-.19-.03-.04-.08-.07-.13-.07-2.76.55-5.5.4-8.22-.45-.39-.13-.81.08-.93.47-.09.26-.02.55.17.75.55.58.82,1.29.79,2.12l-.42.26c-.28.18-.65.09-.83-.19-.02-.03-.04-.07-.05-.11l-1.16-3.01c-.08-.21-.23-.34-.46-.39-.56-.12-1.17-.02-1.82.29l-.39-.89c-.13-.29-.35-.42-.66-.41-4.27.21-8.4-.41-12.4-1.88-.17-.06-.35.04-.4.2-.03.09-.02.18.02.26,1.51,2.55,3.48,4.83,5.92,6.85Zm15.82,4.13l-3.23,2.5c-.49.37-.44.64.15.81,14.13,4.01,31.85,4.22,43.33-6.4l4.26-4.18c.31-.3.25-.44-.18-.43-15.24.56-30.62.13-44.33,7.7Z"/><ellipse class="cls-2" cx="690.17" cy="554.62" rx="4.55" ry="6.64" transform="translate(-2.89 3.62) rotate(-.3)"/><path class="cls-9" d="m449.28,557.3l-7.91,4.13c-2.44-2.02-4.41-4.3-5.92-6.85-.09-.15-.03-.35.12-.44.08-.04.17-.05.26-.02,4,1.47,8.13,2.09,12.4,1.88.31-.01.53.12.66.41l.39.89Z"/><path class="cls-15" d="m454.02,560.45c.79-.37,1.31-.32,1.57.14l-6.3,5.39c-.28.24-.59.3-.94.17-2.85-1.05-5.17-2.62-6.98-4.72l7.91-4.13c.65-.31,1.26-.41,1.82-.29.23.05.38.18.46.39l1.16,3.01c.12.31.46.47.77.35.04-.01.07-.03.11-.05l.42-.26Z"/><path class="cls-9" d="m455.59,560.59c-.26-.46-.78-.51-1.57-.14.03-.83-.24-1.54-.79-2.12-.29-.29-.28-.76.01-1.05.2-.19.49-.26.75-.17,2.72.85,5.46,1,8.22.45.08,0,.14.05.15.13,0,.05-.02.1-.07.13l-6.7,2.77Z"/><path class="cls-9" d="m497.44,562.47c-10.81,0-21.19.73-31.16,2.19-1.22.17-2.45.69-3.74.92-.34.06-.63.26-.8.55-.39.66-.97.85-1.75.57-.5-.18-.78-.29-.84-.34-.51-.39-1.17-.66-1.96-.8,13.71-7.57,29.09-7.14,44.33-7.7.43-.01.49.13.18.43l-4.26,4.18Z"/><path class="cls-8" d="m497.44,562.47c-11.48,10.62-29.2,10.41-43.33,6.4-.59-.17-.64-.44-.15-.81l3.23-2.5c.79.14,1.45.41,1.96.8.06.05.34.16.84.34.78.28,1.36.09,1.75-.57.17-.29.46-.49.8-.55,1.29-.23,2.52-.75,3.74-.92,9.97-1.46,20.35-2.19,31.16-2.19Z"/><path class="cls-16" d="m375.12,587.9c-5.35-.52-45.31-8.04-44.61-15.56.05-.55.32-.69.8-.44,13.9,7.2,28.53,12.36,43.89,15.48,3.39.69,3.37.86-.08.52Z"/><path class="cls-3" d="m552.71,576.42c-26.18,3.86-49.77,6.96-75.5,7.94l-7.94.12c-.07-.01-.11-.08-.1-.14,0-.04.04-.07.08-.09,3.88-.55,8-.64,11.92-.97,28.13-2.39,54.74-5.31,79.83-8.78.19-.03.35-.02.46.02.37.13.33.24-.13.33l-8.62,1.57Z"/><path class="cls-14" d="m552.71,576.42c.83,1.36,2.65,1.58,5.48.66.09-.03.12,0,.09.09-.03.1-.07.2-.1.3-.02.05-.06.08-.11.09-17.85,2.88-29.29,4.87-34.31,5.97-7.02,1.53-13.49,2.01-19.4,1.42-.34-.03-.53.12-.57.45l-.05.32c-.03.19-.14.31-.33.34-6.21,1-10.52.14-15.86.51-5.3.36-8.65.23-13.17.08-.57-.02-.58-.12-.05-.3.49-.16,1.01-.21,1.54-.16.7.07,1.12,0,1.25-.21.19-.33.22-.87.09-1.62,25.73-.98,49.32-4.08,75.5-7.94Z"/><path class="cls-11" d="m638.31,585.31c-.21.22-.45.27-.73.14-.09-.04-.12-.14-.09-.22.02-.04.05-.07.09-.09,5.43-2.78,11.07-5.02,16.92-6.71.27-.08.56.07.65.34.08.24-.03.5-.26.61-5.09,2.69-10.61,4.67-16.58,5.93Z"/><path class="cls-11" d="m595.84,610.61c-.57.2-1.03.23-1.38.1-.15-.06-.23-.24-.17-.39.04-.09.11-.16.21-.18l13.52-3.35c15.6-4.04,30.86-9.12,45.78-15.23,1.3-.54,2.74-.2,3.99.18.67.2,1.04.9.84,1.57-.08.26-.24.49-.46.66-1.43,1.06-3.31,2.18-5.08,2.81-18.67,6.66-37.76,11.27-57.25,13.83Z"/><path class="cls-3" d="m496.24,607.77c-4.72,0-9.44-.13-14.17-.41-.11,0-.22-.04-.31-.11-.2-.15-.18-.22.07-.23l24.92-1.02c6.47.11,14.05-.23,22.75-1.01,21.65-1.94,43.05-4.42,64.2-7.45,3.17-.45,3.23-.19.19.8-.27.09-2.35-.15-3.18,0-31.21,5.87-62.7,9.01-94.47,9.42Z"/><path class="cls-9" d="m717.42,624.95c-8.17-6.25-13.82-13.98-25.26-7.29-6.43,3.76-10.16,8.68-11.17,14.76-1.24-3.03-5.69-13.22-3.72-16.09,4.1-6.01,11.56-13.9,18.85-16.54,6.66-2.41,10.81,6.68,16,9.05,3.42,1.55,8.2,1.64,12.15,2.25.65.1,1.1.7,1,1.35-.03.2-.11.39-.24.56-.78.99-1.9,1.9-3.35,2.75-3.35,1.96-4.77,5.03-4.26,9.2Z"/><path class="cls-8" d="m339.75,634.17c-4.7,6.63-9.03,13.49-12.99,20.56-3.79,6.77-6.13,14.28-7.03,22.52-.67,6.09,2.73,6.02,6.76,8.49.34.21.45.65.24.99-.12.19-.32.32-.54.34l-23.37,2.67c-.54-1.37-.88-3.37-1.01-6.01-1.31-25.08,10.46-45.66,26.39-63.36.56-.63.5-1.59-.12-2.15-.07-.07-.15-.12-.24-.17l-5.34-3.16,9.01-8.79c.26-.25.44-.2.53.14l7.71,27.93Z"/><path class="cls-15" d="m549.21,637.09c.73,1.56.83,2.94.29,4.13-.29.25-.65.35-1.06.28-37.47,5.69-73.35,5.79-112.01,2.54l-19.84-2.65c-18.26-3.16-29.72-5.3-45.29-10.24l-20.01-8.95c-.35-.16-.47-.05-.36.32,8.61,28.71,19.17,56.67,31.67,83.87.25.56.78,1.83,1.59,3.81.55,1.36,1.15,2.61,1.8,3.74-1.94,4.59-4.21,5.01-7.59,7.63-16.55-36.55-29.15-74-39.56-113.83-.06-.25.03-.32.26-.22,7.72,3.19,15.63,6.01,23.74,8.46,1.94.59,4.68,2.1,6.16,3.51,9.79,9.41,18.75,10.79,33.97,13.53,47.74,8.59,98.29,9.7,146.24,4.07Z"/><path class="cls-9" d="m641.76,721.07c2.41-.49,3.98.34,4.71,2.48.11.33.34.55.69.65,5.27,1.43,8.05-.26,13.96-2.86,6.44-2.83,12.77-5.91,19-9.24.31-.16.41-.4.3-.73-.89-2.81-2.84-3.25-5.56-2.26-5.97,2.17-12.15,3.4-18.52,3.69-1.05.05-2.19.48-3.11.46-.83-.01-.91-.27-.24-.77,5.46-4.06,14.27-12.6,11.87-20.27-6.02-19.19-11.99-38.26-17.91-57.23-.28-.88-1.08-1.48-1.99-1.49-8.71-.13-29.75-.47-28.18,13.76.77,6.98,2.31,13.61,4.6,19.88-1.22,1.53-2.26,3.07-3.13,4.6-2.79,4.92-6.96,9.5-9.43,13.82-1.87,3.27,1.31,5.27,4.2,4.91.35-.04.65-.19.9-.44,1.71-1.73,3.58-3.16,5.61-4.29,1.34-.74,2.27-.39,2.79,1.04l6.13,16.77c.12.33,0,.7-.31.88-8.72,5.23,1.1,18.35-13.21,18.01-5.34-.13-9.96.09-13.86.64-10.67,1.5-9.37,15.66.94,15.65,4.69,0,9.38.41,14.05,1.23,1.37.24,1.72.97,1.03,2.18-.15.26-.43.63-.85,1.11-.29.32-.65.6-1.1.85-4.95,2.76-7.58,6.13-9.04,11.74-3.2,12.31-8.38,13.53-19.61,17.39-51.99,17.85-106.45,19.02-158.5,1.55-14.46-4.85-26.4-11.36-34.9-24.79,1.57.75,3.03,1.65,4.39,2.68,16.81,12.73,43.86,18.31,64.5,20.76,30.82,3.67,111.47,7.44,120.03-35.43,3.55-17.76,5.73-35.85,8.12-53.79,2.31-17.44,1.46-34.33,6.83-51.49,1.89-1.41,2.36-2.53,1.42-3.35,23.66-4.75,47.54-10.12,70.55-17.6.21-.07.33,0,.38.23,2.36,10.72,5.47,21.23,9.34,31.54,2.79,7.44,4.4,12.77,5.48,19.71.19,1.21-.52,2.38-1.68,2.77-5.11,1.71-10.27,3.6-9.56,10.21.46,4.3,2.52,7.5,6.19,9.59.29.17.52.42.65.73,1.26,2.97,2.4,8.12,7.02,5.95,1.01-.48,1.75-.63,2.22-.44,1.96.8,2.2,1.96.73,3.49-5.83,6.05-6.16,10.33-3.15,18.04.12.3.12.63.02.93-2.7,8.33-36.84,20.2-41.46,14.17-1.39-1.81-2.5-4.35-3.35-7.62Zm-41.66-44.39c4.06-.5,7.43-12.11,10.66-15.43.23-.23.29-.49.18-.78-1.15-3.37-2.14-6.78-2.97-10.24-.83-3.48-2.91-5.71-6.49-3.42-.26.16-.43.42-.49.72-1.76,8.52-1.93,18.59-2.37,27.77-.04.73.52,1.35,1.25,1.39.08,0,.15,0,.23,0Zm79.15-18.33c-.26-.8-3.05-.62-6.23.4s-5.55,2.51-5.29,3.32c.26.8,3.05.62,6.23-.4,3.18-1.03,5.55-2.51,5.29-3.32Z"/><path class="cls-15" d="m322.5,614.89l5.34,3.16c.72.43.96,1.36.53,2.08-.05.08-.11.16-.17.24-15.93,17.7-27.7,38.28-26.39,63.36.13,2.64.47,4.64,1.01,6.01l-6.44.26c-.87.04-1.67-.5-1.96-1.33-2.22-6.26-2.4-11.11-1.61-17.75.24-2.08.35-4.2.34-6.35,5.15-17.89,15.44-36.72,29.35-49.68Z"/><path class="cls-7" d="m717.42,624.95c2.94,3.8,8.29,5.5,13.62,7.33.3.1.62.11.92.03,4.9-1.32,9.55-6.73,13.63-9.93.41-.31.99-.23,1.3.17.2.26.25.6.13.91-1.14,2.76-3.76,6.49-3.36,9.28.48,3.41,4.37,6.4,7.79,4.22,1.84-1.18,6.15-5.35,8.25-4.73.84.24,1.33,1.11,1.11,1.95-1.16,4.35-3.45,11.2-7.59,13.26-12.69,6.32-18.55,16.07-25.5,28.16-.23.4-.44.39-.65-.02-1.65-3.3-.75-7.53-.53-11.15.02-.45-.32-.83-.76-.85-.11,0-.23.01-.34.05-1.83.71-3.26,1.92-4.3,3.62-.15.25-.44.38-.72.33l-4.4-.76c-.38-.07-.55-.3-.51-.69l.78-7.43c2.17.13,3.91.6,5.22,1.4,7.79,4.77,5.59-3.86,8.92-4.88.17-.05.33,0,.48.13.12.11.15.28.08.42l-1.07,2.16c-.11.21-.02.47.19.58.13.06.27.06.4,0,.87-.47,1.51-1.2,1.91-2.17.13-.31.33-.59.58-.82,3.99-3.55,7.73-7.37,11.21-11.44.32-.37.28-.92-.09-1.24-.21-.18-.49-.25-.75-.2l-11.42,2.29c-.29.06-.32,0-.09-.19l1.11-.93c.25-.21.29-.44.1-.71-1.13-1.65-2.32-2.68-3.57-3.11-6.69-2.32-11.59-4.5-14.68-6.55-4.52-2.99-9.48-7.12-15.05-5.69-6.78,1.73-11.68,6.67-10.88,13.94,1.07,9.65,12.06,15.85,20.88,16.96.33.04.6-.08.79-.35.93-1.35,2.07-1.47,3.41-.38-2.39,1.61-4.08,3.98-5.07,7.1-.1.31-.3.42-.61.35-7.62-1.78-17.42-5.18-20.15-12.36-2.55-6.69-4.93-13.55-7.15-20.58,1.01-6.08,4.74-11,11.17-14.76,11.44-6.69,17.09,1.04,25.26,7.29Z"/><path class="cls-9" d="m381.14,622.42c-.31-.11-.53-.36-.66-.73-.06-.15.02-.33.17-.39.06-.02.12-.03.18-.01,37.04,8.16,74.55,12.14,112.54,11.94,2.94-.02,5.67.38,8.49.82.12,0,.22.12.22.24,0,.12-.11.22-.23.21h0c-13.78.94-28.26-.21-42.09-.72-17.33-.63-38.47-2.68-57.03-6.31-6.01-1.17-14.52-2.34-21.59-5.05Z"/><path class="cls-7" d="m371.3,631.15l14.65,37.37c.17.45.68.67,1.12.5.23-.09.41-.26.5-.49.47-1.2,1.21-2.24,2.21-3.12.75-.66.98-1.47.67-2.42-1.93-5.99-3.12-12.13-3.59-18.42-.02-.31.1-.53.37-.68,3.81-2.09,6.64,6.56,7.74,9.04.18.4.65.58,1.06.4.25-.11.42-.34.46-.6l.59-3.57c.08-.48.36-.7.84-.66l2.06.17c.24.02.46-.09.6-.28.65-.91,1.48-1.02,2.48-.32.2.13.33.31.4.54l6.07,20.61c.13.46.6.72,1.06.6.2-.05.37-.18.48-.35,1.65-2.41,3.9-3.27,6.74-2.59.49.12.99-.18,1.11-.67.03-.12.04-.25.02-.37-1.1-6.83-2.55-13.62-4.34-20.38-.39-1.44.28-2.8,1.99-4.07l19.84,2.65c1.1,5.85,1.42,11.53.95,17.04-.1,1.16.76,2.17,1.91,2.27.21.02.43,0,.64-.04,1.6-.36,3.12-.64,4.57-.84,3.35-.46,5.74-2.07,9.31.44.06.04.13.07.2.08l6.98,1.41c.27.05.54.02.8-.09,2.33-1,5-.09,6.78-.19,5.17-.29,10.34-.3,15.51-.02,2.85.15,5.43-.95,8.52-.58.31.04.63-.01.92-.15,4.13-1.96,6.3-4.98,11.44-2.97,7.31,2.86,12.44,9.27,15.65,16.34.12.27.43.39.7.27.1-.04.19-.12.24-.21l1.2-1.97c.15-.25.37-.36.66-.33,1.87.19,3.63-.16,5.29-1.04.1-.05.22-.07.34-.05l5.63.99c.35.06.67,0,.97-.18,1.59-.98,3.3-1.2,5.14-.67.69.2,1.41-.2,1.61-.89,0-.03.02-.06.02-.09,1.63-7.77,3.32-15.54,5.05-23.33.65-2.95.98-5.53.98-7.74.41.07.77-.03,1.06-.28l22.51-3.39c1.87-.28,3.61,1,3.89,2.87.04.26.05.52.03.78-.63,7.91-1.33,15.68-2.09,23.33-.61,6.2-.79,11.48-.53,15.84.01.27-.03.54-.12.79-.54,1.43-.58,2.84-.13,4.24.06.21.29.33.5.27.15-.05.26-.18.28-.34,1.29-10.2,3.02-20.32,5.17-30.35,1.44-6.66,4.24-13.09,6.68-19.57.11-.31.33-.49.64-.56l10.63-2.41c-5.37,17.16-4.52,34.05-6.83,51.49-2.39,17.94-4.57,36.03-8.12,53.79-8.56,42.87-89.21,39.1-120.03,35.43-20.64-2.45-47.69-8.03-64.5-20.76-1.36-1.03-2.82-1.93-4.39-2.68l-6.21-10.49c.79-.35,1.06-.83.81-1.43-.29-.67-.61-1.33-.96-1.98-.15-.29-.21-.6-.17-.93l.68-4.98c.07-.51.54-.87,1.04-.8.25.03.48.17.63.37l8.52,11.58c.12.17.35.21.52.09.14-.1.19-.27.13-.43-3.36-9.22-7.39-18.24-12.09-27.05-.65-1.13-1.25-2.38-1.8-3.74-.81-1.98-1.34-3.25-1.59-3.81-12.5-27.2-23.06-55.16-31.67-83.87-.11-.37.01-.48.36-.32l20.01,8.95Zm122.48,34.14c-2.57-.37-4.55-.13-5.95.72-2.73.45-4.5.59-5.31.4-7.23-1.67-14.43-1.42-21.58.74-.32.09-.64.08-.95-.05-4.45-1.91-20.19-4.74-21.36,3.06-1.17,7.77-1.9,16.01,7.32,18.58,5.99,1.67,11.27,1.1,15.83-1.69.28-.17.57-.19.87-.04,5.4,2.65,16.78,4.96,21.54-.06.3-.32.77-.38,1.14-.16,7.98,4.87,23.38,5.86,22.78-7.96-.43-10.05-3.56-14.17-14.33-13.54Zm-6.48,46.1c.83-4.08-2.08-8.11-6.49-9.01-4.42-.9-8.67,1.68-9.5,5.75-.83,4.08,2.08,8.11,6.49,9.01,4.42.9,8.67-1.68,9.5-5.75Zm1.66,31.66c.29-4.05-2.99-7.58-7.32-7.89h0c-4.34-.31-8.09,2.72-8.38,6.77h0c-.29,4.05,2.99,7.58,7.32,7.89h0c4.34.31,8.09-2.72,8.38-6.77h0Z"/><path class="cls-8" d="m716.29,658.7l1.68-4.43c.05-.15-.02-.32-.17-.37-.13-.05-.27,0-.35.12-.99,1.66-2.15,2.96-3.48,3.89-1.34-1.09-2.48-.97-3.41.38-.19.27-.46.39-.79.35-8.82-1.11-19.81-7.31-20.88-16.96-.8-7.27,4.1-12.21,10.88-13.94,5.57-1.43,10.53,2.7,15.05,5.69,3.09,2.05,7.99,4.23,14.68,6.55,1.25.43,2.44,1.46,3.57,3.11.19.27.15.5-.1.71l-1.11.93c-.23.19-.2.25.09.19l11.42-2.29c.48-.1.94.21,1.04.69.05.27-.02.55-.2.75-3.48,4.07-7.22,7.89-11.21,11.44-.25.23-.45.51-.58.82-.4.97-1.04,1.7-1.91,2.17-.21.11-.47.04-.58-.17-.07-.12-.07-.27,0-.4l1.07-2.16c.07-.14.04-.31-.08-.42-.15-.14-.31-.18-.48-.13-3.33,1.02-1.13,9.65-8.92,4.88-1.31-.8-3.05-1.27-5.22-1.4Z"/><path class="cls-8" d="m598.38,629.37c.94.82.47,1.94-1.42,3.35l-10.63,2.41c-.31.07-.53.25-.64.56-2.44,6.48-5.24,12.91-6.68,19.57-2.15,10.03-3.88,20.15-5.17,30.35-.03.22-.22.38-.44.35-.16-.02-.29-.13-.34-.28-.45-1.4-.41-2.81.13-4.24.09-.25.13-.52.12-.79-.26-4.36-.08-9.64.53-15.84.76-7.65,1.46-15.42,2.09-23.33.15-1.88-1.26-3.53-3.14-3.68-.26-.02-.52-.01-.78.03l-22.51,3.39c.54-1.19.44-2.57-.29-4.13,16.41-1.84,32.8-4.41,49.17-7.72Z"/><path class="cls-8" d="m371.3,631.15c15.57,4.94,27.03,7.08,45.29,10.24-1.71,1.27-2.38,2.63-1.99,4.07,1.79,6.76,3.24,13.55,4.34,20.38.08.5-.26.97-.76,1.06-.12.02-.25.01-.37-.02-2.84-.68-5.09.18-6.74,2.59-.27.39-.8.5-1.19.23-.17-.11-.29-.28-.35-.48l-6.07-20.61c-.07-.23-.2-.41-.4-.54-1-.7-1.83-.59-2.48.32-.14.19-.36.3-.6.28l-2.06-.17c-.48-.04-.76.18-.84.66l-.59,3.57c-.07.44-.48.73-.92.66-.27-.04-.49-.22-.6-.46-1.1-2.48-3.93-11.13-7.74-9.04-.27.15-.39.37-.37.68.47,6.29,1.66,12.43,3.59,18.42.31.95.08,1.76-.67,2.42-1,.88-1.74,1.92-2.21,3.12-.18.45-.68.66-1.13.49-.23-.09-.4-.27-.49-.5l-14.65-37.37Z"/><path class="cls-8" d="m641.76,721.07c-.22-.33-.3-.68-.25-1.05.02-.23.23-.4.47-.37.01,0,.02,0,.03,0,2.14.4,4.19.2,6.15-.61.71-.29,1.05-1.09.76-1.8-.17-.43-.55-.74-1-.83-4.42-.93-9.22-1.61-11.14-6.71-5.31-14.09-9.47-28.75-15.4-42.56-2.29-6.27-3.83-12.9-4.6-19.88-1.57-14.23,19.47-13.89,28.18-13.76.91.01,1.71.61,1.99,1.49,5.92,18.97,11.89,38.04,17.91,57.23,2.4,7.67-6.41,16.21-11.87,20.27-.67.5-.59.76.24.77.92.02,2.06-.41,3.11-.46,6.37-.29,12.55-1.52,18.52-3.69,2.72-.99,4.67-.55,5.56,2.26.11.33,0,.57-.3.73-6.23,3.33-12.56,6.41-19,9.24-5.91,2.6-8.69,4.29-13.96,2.86-.35-.1-.58-.32-.69-.65-.73-2.14-2.3-2.97-4.71-2.48Zm-9.77-77.4c-.55-.34-1.27-.16-1.61.39-.11.19-.17.4-.17.62.02,1.37.43,2.84,1.22,4.39,8.71,17.05,15.43,32.19,16.81,51.67.13,1.79.06,3.56-.2,5.32-.04.27.07.4.34.41,6.4.24,3.06-17.32,2.48-20.64-1.86-10.69-9.16-36.17-18.87-42.16Z"/><path class="cls-7" d="m339.75,634.17l6.25,20.1c-5.07,6.19-9.61,12.8-13.62,19.83-.19.33-.16.64.08.93,1.35,1.59,1.5,2.26.46,1.99-2.15,1.35-3.11,3.11-2.88,5.28.04.36.27.67.61.81l10.53,4.19c.96.38,1.43,1.47,1.05,2.43,0,.01-.01.03-.02.04-1.62,3.83,1.45,7.93,3.35,11.17.2.34.11.55-.27.64-9.31,2.09-18.62,4.08-27.93,5.99-9.02,1.85-15.54,4.45-22.87,8.95-.28.17-.65.1-.85-.16-4.33-5.63-4.75-9.89-1.24-12.79.65,1.05,1.05,2.39,1.18,4.01.02.28.14.53.35.72,1.09.97,2.08.97,2.95.02.25-.27.55-.4.91-.37,1.81.13,2.95-.53,3.42-1.96.71-.53,1.61-.91,2.71-1.12,7.83-2.43,15.87-4.28,24.1-5.57,1.85-.29,3.61-.86,5.26-1.69.32-.15.45-.52.3-.84-.11-.23-.35-.38-.6-.36-10.24.29-20.55,1.36-30.92,3.19.09-1.12-.37-1.88-1.36-2.29.55,0,.91-.17,1.1-.5l1.62-1.35c.25-.21.55-.3.88-.27,2.84.26,5.64.04,8.39-.66.17-.05.31-.13.43-.25.13-.14.26-.29.39-.44.21-.24.47-.37.78-.38,2.17-.08,4.04-.82,5.59-2.21.29-.26.62-.36,1-.3,2.31.34,4.59.21,6.86-.39.22-.06.35-.28.29-.5-.04-.14-.14-.25-.28-.29-1.07-.31-2.24-.43-3.5-.35-7.94.53-15.86,1.24-23.77,2.15-1.35.32-2.66.75-3.91,1.28-1.81.78-2.3,2.56-.56,3.8l-6.47.77c-.33.04-.51-.11-.53-.45-.65-11.14.73-21.94,4.14-32.4.01,2.15-.1,4.27-.34,6.35-.79,6.64-.61,11.49,1.61,17.75.29.83,1.09,1.37,1.96,1.33l6.44-.26,23.37-2.67c.4-.04.68-.4.64-.79-.02-.22-.15-.42-.34-.54-4.03-2.47-7.43-2.4-6.76-8.49.9-8.24,3.24-15.75,7.03-22.52,3.96-7.07,8.29-13.93,12.99-20.56Z"/><path class="cls-8" d="m548.44,641.5c0,2.21-.33,4.79-.98,7.74-1.73,7.79-3.42,15.56-5.05,23.33-.15.7-.84,1.15-1.54,1-.03,0-.06-.01-.09-.02-1.84-.53-3.55-.31-5.14.67-.3.18-.62.24-.97.18l-5.63-.99c-.12-.02-.24,0-.34.05-1.66.88-3.42,1.23-5.29,1.04-.29-.03-.51.08-.66.33l-1.2,1.97c-.15.25-.48.33-.73.18-.09-.06-.17-.14-.21-.24-3.21-7.07-8.34-13.48-15.65-16.34-5.14-2.01-7.31,1.01-11.44,2.97-.29.14-.61.19-.92.15-3.09-.37-5.67.73-8.52.58-5.17-.28-10.34-.27-15.51.02-1.78.1-4.45-.81-6.78.19-.26.11-.53.14-.8.09l-6.98-1.41c-.07-.01-.14-.04-.2-.08-3.57-2.51-5.96-.9-9.31-.44-1.45.2-2.97.48-4.57.84-1.13.25-2.25-.46-2.51-1.59-.05-.21-.06-.42-.04-.64.47-5.51.15-11.19-.95-17.04,38.66,3.25,74.54,3.15,112.01-2.54Z"/><path class="cls-15" d="m631.99,643.67c9.71,5.99,17.01,31.47,18.87,42.16.58,3.32,3.92,20.88-2.48,20.64-.27,0-.38-.14-.34-.41.26-1.76.33-3.53.2-5.32-1.38-19.48-8.1-34.62-16.81-51.67-.79-1.55-1.2-3.02-1.22-4.39,0-.65.51-1.18,1.16-1.18.22,0,.43.06.62.17Z"/><path class="cls-7" d="m610.76,661.25c-3.23,3.32-6.6,14.93-10.66,15.43-.72.09-1.38-.42-1.47-1.15,0-.08-.01-.15,0-.23.44-9.18.61-19.25,2.37-27.77.06-.3.23-.56.49-.72,3.58-2.29,5.66-.06,6.49,3.42.83,3.46,1.82,6.87,2.97,10.24.11.29.05.55-.18.78Z"/><path class="cls-9" d="m752.26,676.86l-.27-1.53c-.06-.35.04-.66.29-.92,2.51-2.59,3.97-5.65,4.38-9.2.14-1.16-.33-1.96-1.42-2.4-5.27-2.13-7.62-.56-10.83,3.19-.9,1.05-1.96,1.78-3.17,2.19-.57-3.55,1.4-6.99,5.89-10.33,3.2-2.37,6.6-4.41,10.2-6.1.28-.14.61-.1.86.08,4.37,3.18,8.99,5.94,13.87,8.27.41.19.59.68.4,1.09-.06.14-.17.26-.3.34-6.99,4.61-13.63,9.71-19.9,15.32Z"/><path class="cls-9" d="m346,654.27c1.45,4.52,2.87,9.29,4.27,14.32,1.21,4.34-1.63,10.6-3.48,14.59-.15.31-.35.36-.62.13-4.05-3.47-8.46-5.56-13.25-6.29,1.04.27.89-.4-.46-1.99-.24-.29-.27-.6-.08-.93,4.01-7.03,8.55-13.64,13.62-19.83Z"/><ellipse class="cls-16" cx="673.49" cy="660.21" rx="6.05" ry="1.53" transform="translate(-170.32 238.96) rotate(-17.9)"/><path class="cls-8" d="m752.26,676.86l-2.29,5.72c-.18.45-.69.66-1.14.48-.08-.03-.15-.08-.22-.13-4.33-3.53-4.51-9.65-7.37-14.74,1.21-.41,2.27-1.14,3.17-2.19,3.21-3.75,5.56-5.32,10.83-3.19,1.09.44,1.56,1.24,1.42,2.4-.41,3.55-1.87,6.61-4.38,9.2-.25.26-.35.57-.29.92l.27,1.53Z"/><path class="cls-16" d="m487.83,666.01c1.75.31,3.74.07,5.95-.72,10.77-.63,13.9,3.49,14.33,13.54.6,13.82-14.8,12.83-22.78,7.96-.37-.22-.84-.16-1.14.16-4.76,5.02-16.14,2.71-21.54.06-.3-.15-.59-.13-.87.04-4.56,2.79-9.84,3.36-15.83,1.69-9.22-2.57-8.49-10.81-7.32-18.58,1.17-7.8,16.91-4.97,21.36-3.06.31.13.63.14.95.05,7.15-2.16,14.35-2.41,21.58-.74.81.19,2.58.05,5.31-.4Zm-32.91,20.13c2.21-.02,3.88-.68,5-1.98.21-.25.33-.57.33-.9v-12.17c0-.31-.13-.6-.34-.82-1.2-1.23-2.91-1.91-5.13-2.06-3.41-.31-12.98-1.7-13.7,3.11-1.78,11.94,1.3,16.22,13.84,14.82Zm24.22.15c6.44-1.63,4.35-9.95,4.06-14.81-.1-1.73-1.5-2.75-4.2-3.06-4.61-.66-9.4-.66-14.39,0-.65.09-1,.46-1.03,1.12-.2,3.88-.31,7.79-.34,11.72-.06,6.62,12.6,5.67,15.9,5.03Zm20.88.34c7.15-1.04,6.11-9.92,4.67-15.31-.38-1.41-1.87-2.39-4.48-2.94-4.11-.55-8.65-.5-13.63.13-.33.04-.48.22-.47.55.23,5.27.27,9.41.12,12.44-.3,5.96,10.21,5.58,13.79,5.13Z"/><path class="cls-9" d="m493.78,665.29c-2.21.79-4.2,1.03-5.95.72,1.4-.85,3.38-1.09,5.95-.72Z"/><path class="cls-13" d="m454.78,668.21l.14,17.93c-12.54,1.4-15.62-2.88-13.84-14.82.72-4.81,10.29-3.42,13.7-3.11Z"/><path class="cls-12" d="m479,668.42l.14,17.87c-3.3.64-15.96,1.59-15.9-5.03.03-3.93.14-7.84.34-11.72.03-.66.38-1.03,1.03-1.12,4.99-.66,9.78-.66,14.39,0Z"/><path class="cls-13" d="m500.21,668.38c1.37,6.47,1.3,12.56-.19,18.25-3.58.45-14.09.83-13.79-5.13.15-3.03.11-7.17-.12-12.44-.01-.33.14-.51.47-.55,4.98-.63,9.52-.68,13.63-.13Z"/><path class="cls-10" d="m454.78,668.21c2.22.15,3.93.83,5.13,2.06.21.22.33.51.34.82v12.17c0,.33-.12.65-.33.9-1.12,1.3-2.79,1.96-5,1.98l-.14-17.93Z"/><path class="cls-10" d="m479,668.42c2.7.31,4.1,1.33,4.2,3.06.29,4.86,2.38,13.18-4.06,14.81l-.14-17.87Z"/><path class="cls-10" d="m500.21,668.38c2.61.55,4.1,1.53,4.48,2.94,1.44,5.39,2.48,14.27-4.67,15.31,1.49-5.69,1.56-11.78.19-18.25Z"/><path class="cls-1" d="m687.62,670.77c3.84,4.38,1.48,11.7-.38,16.51-.15.37-.3.37-.46,0-.56-1.22-.8-2.49-1.73-3.47-1.85-1.96-5.74-5.18-5.81-7.96,0-.39.12-.72.39-1,1.91-2.04,4.19-3.51,6.84-4.4.41-.14.86-.02,1.15.31Z"/><path class="cls-8" d="m769.47,717.72c-1.77-1.25-2.47-2.98-2.11-5.21,2.06-12.69.86-25.03-3.61-37.02-.11-.3,0-.64.26-.82l2.45-1.65c.33-.23.58-.16.75.2,6.17,12.43,8.43,25.55,6.78,39.34-.18,1.5-.97,3.23-1.65,4.49-.52.96-1.71,1.31-2.67.79-.07-.04-.14-.08-.2-.12Z"/><path class="cls-3" d="m619.69,679.44c-.04-.24,0-.46.1-.67.2-.37.35-.35.46.05l.52,1.94c.08.29-.05.59-.31.73l-1.44.77c-.38.2-.49.1-.33-.3.34-.83.67-1.67,1-2.52Z"/><path class="cls-8" d="m301.8,696.81c.4-1.25.3-2.36-.31-3.34-.09-.15-.12-.34-.06-.52l.15-.44c.12-.37,0-.61-.37-.72l-.73-.22c7.91-.91,15.83-1.62,23.77-2.15,1.26-.08,2.43.04,3.5.35.22.06.34.29.28.51-.04.14-.15.24-.29.28-2.27.6-4.55.73-6.86.39-.38-.06-.71.04-1,.3-1.55,1.39-3.42,2.13-5.59,2.21-.31.01-.57.14-.78.38-.13.15-.26.3-.39.44-.12.12-.26.2-.43.25-2.75.7-5.55.92-8.39.66-.33-.03-.63.06-.88.27l-1.62,1.35Z"/><path class="cls-15" d="m300.48,691.57l.73.22c.37.11.49.35.37.72l-.15.44c-.06.18-.03.37.06.52.61.98.71,2.09.31,3.34-.19.33-.55.49-1.1.5l-4.69-.66c-1.74-1.24-1.25-3.02.56-3.8,1.25-.53,2.56-.96,3.91-1.28Z"/><path class="cls-8" d="m303.92,704.87c-.62-1.29-1.59-1.79-2.91-1.5-.26.05-.52.05-.77,0l-2.21-.44c-.35-.07-.6.06-.74.39l-1.01,2.41c-.28.67.03,1.43.7,1.72.34.14.72.14,1.05-.02l3.18-1.44c-.47,1.43-1.61,2.09-3.42,1.96-.36-.03-.66.1-.91.37-.87.95-1.86.95-2.95-.02-.21-.19-.33-.44-.35-.72-.13-1.62-.53-2.96-1.18-4.01,3.27-2.12,6.49-3.44,9.66-3.97,10.37-1.83,20.68-2.9,30.92-3.19.35-.02.64.25.66.6.01.26-.13.5-.36.6-1.65.83-3.41,1.4-5.26,1.69-8.23,1.29-16.27,3.14-24.1,5.57Z"/><ellipse class="cls-12" cx="479.3" cy="709.76" rx="7.53" ry="8.16" transform="translate(-311.77 1037.93) rotate(-78.5)"/><path class="cls-15" d="m303.92,704.87c-1.1.21-2,.59-2.71,1.12l-3.18,1.44c-.66.3-1.44,0-1.73-.65-.15-.33-.16-.71-.02-1.05l1.01-2.41c.14-.33.39-.46.74-.39l2.21.44c.25.05.51.05.77,0,1.32-.29,2.29.21,2.91,1.5Z"/><path class="cls-7" d="m338.35,722.63c-.05.23-.18.39-.41.46-7.78,2.6-16.09,4.4-23.29,8.92-.33.21-.57.14-.72-.22-2.08-5.01-3.67-10.18-4.78-15.5-.07-.35.06-.56.41-.64l31.02-6.76c.29-.06.4.05.35.34l-2.58,13.4Zm-24.18,5.14c1.98-.22,3.11,1.09,4.86-.55.23-.22.51-.36.83-.43,4.46-.95,8.4-2.35,6.12-8.04-.13-.33-.38-.5-.74-.5h-1.78c-.43,0-.81-.13-1.14-.4-3.44-2.77-6.92-2.77-10.44,0-.25.2-.35.46-.28.78l1.8,8.58c.09.42.34.61.77.56Z"/><path class="cls-8" d="m385.99,713.94c4.7,8.81,8.73,17.83,12.09,27.05.07.19-.03.4-.22.47-.16.06-.33,0-.43-.13l-8.52-11.58c-.31-.41-.89-.5-1.3-.2-.2.15-.34.38-.37.63l-.68,4.98c-.04.33.02.64.17.93.35.65.67,1.31.96,1.98.25.6-.02,1.08-.81,1.43l-8.48-17.93c3.38-2.62,5.65-3.04,7.59-7.63Z"/><path class="cls-8" d="m319.03,727.22c-1.75,1.64-2.88.33-4.86.55-.43.05-.68-.14-.77-.56l-1.8-8.58c-.07-.32.03-.58.28-.78,3.52-2.77,7-2.77,10.44,0,.33.27.71.4,1.14.4h1.78c.36,0,.61.17.74.5,2.28,5.69-1.66,7.09-6.12,8.04-.32.07-.6.21-.83.43Z"/><path class="cls-9" d="m685.93,744.59c-7.16-5.25-12.23-8.76-19.79-11.49,6.87-2.47,13.45-5.33,19.75-8.59.25-.13.55-.05.71.19l8.7,13.24c.41.62.25,1.45-.35,1.88-3.27,2.31-6.27,3.9-9.02,4.77Z"/><path class="cls-4" d="m600.3,732.23c-.26-.15-.44-.4-.49-.7-.7-4.1,10.05-3.07,12.4-2.83.33.03.5.22.51.56.11,7.26-8.63,5.02-12.42,2.97Z"/><path class="cls-8" d="m666.14,733.1c7.56,2.73,12.63,6.24,19.79,11.49l-25.01,7.8c-.31.1-.59.03-.82-.21-2.3-2.42-3.53-5.31-3.69-8.67-.02-.35.22-.67.57-.75.83-.19,2.07-.53,3.71-1.02,1.11-.33,1.41-1.06.9-2.21-.13-.28-.34-.4-.65-.37-3.42.43-6.7,0-9.85-1.27-.32-.13-.47-.49-.34-.81.08-.21.27-.35.49-.38,5.03-.67,10-1.87,14.9-3.6Z"/><path class="cls-8" d="m323.93,774.96c-2.84.16-3.53-3.06-2.93-5.21,3.09-10.94,2.93-21.68-.46-32.22-.11-.34-.03-.62.26-.83l3.77-2.86c.34-.25.59-.18.74.22,1.25,3.26,2.17,7.22,2.77,11.87.53,4.09,2.16,28.69-4.15,29.03Z"/><ellipse class="cls-12" cx="481.11" cy="742.48" rx="7.35" ry="7.87" transform="translate(-293.87 1169.27) rotate(-85.9)"/><path class="cls-9" d="m340.23,736.58c.3,0,.53.25.53.55,0,.05-.01.11-.03.16-.12.34-.4.61-.84.81-2.1.96-4.27,1.75-6.51,2.37-.42.11-.63-.05-.63-.49v-2.88c0-.43.22-.65.65-.64l6.83.12Z"/><path class="cls-8" d="m684.58,791.39c-1.84-1.22-1.69-3.09-1.15-5.2,2.87-11.17,2.41-22.34-1.39-33.51-.11-.34.07-.71.41-.82,0,0,.01,0,.02,0l3.39-.97c.3-.09.5.01.61.3,3.28,9.02,7.83,31.62,1.46,39.67-.81,1.02-2.27,1.25-3.35.54Z"/><path class="cls-7" d="m547.15,805.87l6.83,1.24c.32.06.66,0,.95-.15,2.75-1.49,6.76-2.83,8.14-5.73,1.13-2.38,1.69-4.95,1.66-7.71,0-.33-.25-.61-.58-.65-4.58-.55-10.05.56-13.28.75-2.48.14-5,.39-7.57.76l-.99-3.05c-.12-.38.08-.8.47-.92.04-.01.09-.02.13-.03,9.27-1.25,18.4-3.17,27.4-5.76.18-.05.37.05.42.23.02.06.02.12,0,.17-1.07,5.2-3.65,20.13-7.45,23.41-5.63,4.87-11.01,4.01-16.14-2.56Z"/><path class="cls-8" d="m458.24,788.96c.33,3.97,2.39,11.63-4.42,11.48-.18,0-.36.07-.48.21l-1.32,1.49c-.24.28-.66.31-.94.07-1.15-.96-2.33-1.47-3.55-1.52l-4.25-14.6c-.05-.16.04-.34.21-.39.05-.02.11-.02.16,0l14.59,3.26Z"/><path class="cls-7" d="m458.24,788.96l10.36,1.83c.34.06.49.26.44.6-1.37,9.07-2.92,14.83-13.79,14.72-3.82-.04-6.39-1.85-7.72-5.42,1.22.05,2.4.56,3.55,1.52.28.24.7.21.94-.07l1.32-1.49c.12-.14.3-.22.48-.21,6.81.15,4.75-7.51,4.42-11.48Z"/><path class="cls-8" d="m547.15,805.87l-3.85-11.49c2.57-.37,5.09-.62,7.57-.76,3.23-.19,8.7-1.3,13.28-.75.33.04.57.32.58.65.03,2.76-.53,5.33-1.66,7.71-1.38,2.9-5.39,4.24-8.14,5.73-.29.16-.63.21-.95.15l-6.83-1.24Z"/><path class="cls-3" d="m421.69,831.56c-.29-.11-.5-.23-.63-.36-.7-.67-.57-.77.39-.32,13.39,6.36,32.92,4.89,46.51.19,7.1-2.46.78-14.89-2.29-18.18-.19-.2-.18-.39.03-.58.19-.17.36-.18.52-.02,5.26,5.29,10.66,17.89-.68,20.74-15.26,3.85-28.94,4.32-43.85-1.47Z"/></svg>